%TF.GenerationSoftware,KiCad,Pcbnew,7.0.7*%
%TF.CreationDate,2024-01-01T13:21:11+01:00*%
%TF.ProjectId,A500-Kickadapter,41353030-2d4b-4696-936b-616461707465,rev?*%
%TF.SameCoordinates,Original*%
%TF.FileFunction,Drillmap*%
%TF.FilePolarity,Positive*%
%FSLAX45Y45*%
G04 Gerber Fmt 4.5, Leading zero omitted, Abs format (unit mm)*
G04 Created by KiCad (PCBNEW 7.0.7) date 2024-01-01 13:21:11*
%MOMM*%
%LPD*%
G01*
G04 APERTURE LIST*
%ADD10C,0.100000*%
%ADD11C,0.200000*%
%ADD12C,0.080000*%
G04 APERTURE END LIST*
D10*
X9810750Y-13208000D02*
X13525500Y-13208000D01*
X19462750Y-3524250D02*
X19462750Y-9175750D01*
X15875000Y-3524250D02*
X9810750Y-7620000D01*
X19462750Y-3524250D02*
X15875000Y-3524250D01*
X9810750Y-13208000D02*
X9810750Y-7620000D01*
X13525500Y-13208000D02*
X19462750Y-9175750D01*
D11*
D12*
X10056500Y-8024500D02*
X10136500Y-8104500D01*
X10136500Y-8024500D02*
X10056500Y-8104500D01*
X10056500Y-8278500D02*
X10136500Y-8358500D01*
X10136500Y-8278500D02*
X10056500Y-8358500D01*
X10056500Y-8532500D02*
X10136500Y-8612500D01*
X10136500Y-8532500D02*
X10056500Y-8612500D01*
X10056500Y-8786500D02*
X10136500Y-8866500D01*
X10136500Y-8786500D02*
X10056500Y-8866500D01*
X10056500Y-9040500D02*
X10136500Y-9120500D01*
X10136500Y-9040500D02*
X10056500Y-9120500D01*
X10056500Y-9294500D02*
X10136500Y-9374500D01*
X10136500Y-9294500D02*
X10056500Y-9374500D01*
X10056500Y-9548500D02*
X10136500Y-9628500D01*
X10136500Y-9548500D02*
X10056500Y-9628500D01*
X10056500Y-9802500D02*
X10136500Y-9882500D01*
X10136500Y-9802500D02*
X10056500Y-9882500D01*
X10056500Y-10056500D02*
X10136500Y-10136500D01*
X10136500Y-10056500D02*
X10056500Y-10136500D01*
X10056500Y-10310500D02*
X10136500Y-10390500D01*
X10136500Y-10310500D02*
X10056500Y-10390500D01*
X10056500Y-10564500D02*
X10136500Y-10644500D01*
X10136500Y-10564500D02*
X10056500Y-10644500D01*
X10056500Y-10818500D02*
X10136500Y-10898500D01*
X10136500Y-10818500D02*
X10056500Y-10898500D01*
X10056500Y-11072500D02*
X10136500Y-11152500D01*
X10136500Y-11072500D02*
X10056500Y-11152500D01*
X10056500Y-11326500D02*
X10136500Y-11406500D01*
X10136500Y-11326500D02*
X10056500Y-11406500D01*
X10056500Y-11580500D02*
X10136500Y-11660500D01*
X10136500Y-11580500D02*
X10056500Y-11660500D01*
X10056500Y-11834500D02*
X10136500Y-11914500D01*
X10136500Y-11834500D02*
X10056500Y-11914500D01*
X10056500Y-12088500D02*
X10136500Y-12168500D01*
X10136500Y-12088500D02*
X10056500Y-12168500D01*
X10056500Y-12342500D02*
X10136500Y-12422500D01*
X10136500Y-12342500D02*
X10056500Y-12422500D01*
X10056500Y-12596500D02*
X10136500Y-12676500D01*
X10136500Y-12596500D02*
X10056500Y-12676500D01*
X10056500Y-12850500D02*
X10136500Y-12930500D01*
X10136500Y-12850500D02*
X10056500Y-12930500D01*
X11580500Y-8024500D02*
X11660500Y-8104500D01*
X11660500Y-8024500D02*
X11580500Y-8104500D01*
X11580500Y-8278500D02*
X11660500Y-8358500D01*
X11660500Y-8278500D02*
X11580500Y-8358500D01*
X11580500Y-8532500D02*
X11660500Y-8612500D01*
X11660500Y-8532500D02*
X11580500Y-8612500D01*
X11580500Y-8786500D02*
X11660500Y-8866500D01*
X11660500Y-8786500D02*
X11580500Y-8866500D01*
X11580500Y-9040500D02*
X11660500Y-9120500D01*
X11660500Y-9040500D02*
X11580500Y-9120500D01*
X11580500Y-9294500D02*
X11660500Y-9374500D01*
X11660500Y-9294500D02*
X11580500Y-9374500D01*
X11580500Y-9548500D02*
X11660500Y-9628500D01*
X11660500Y-9548500D02*
X11580500Y-9628500D01*
X11580500Y-9802500D02*
X11660500Y-9882500D01*
X11660500Y-9802500D02*
X11580500Y-9882500D01*
X11580500Y-10056500D02*
X11660500Y-10136500D01*
X11660500Y-10056500D02*
X11580500Y-10136500D01*
X11580500Y-10310500D02*
X11660500Y-10390500D01*
X11660500Y-10310500D02*
X11580500Y-10390500D01*
X11580500Y-10564500D02*
X11660500Y-10644500D01*
X11660500Y-10564500D02*
X11580500Y-10644500D01*
X11580500Y-10818500D02*
X11660500Y-10898500D01*
X11660500Y-10818500D02*
X11580500Y-10898500D01*
X11580500Y-11072500D02*
X11660500Y-11152500D01*
X11660500Y-11072500D02*
X11580500Y-11152500D01*
X11580500Y-11326500D02*
X11660500Y-11406500D01*
X11660500Y-11326500D02*
X11580500Y-11406500D01*
X11580500Y-11580500D02*
X11660500Y-11660500D01*
X11660500Y-11580500D02*
X11580500Y-11660500D01*
X11580500Y-11834500D02*
X11660500Y-11914500D01*
X11660500Y-11834500D02*
X11580500Y-11914500D01*
X11580500Y-12088500D02*
X11660500Y-12168500D01*
X11660500Y-12088500D02*
X11580500Y-12168500D01*
X11580500Y-12342500D02*
X11660500Y-12422500D01*
X11660500Y-12342500D02*
X11580500Y-12422500D01*
X11580500Y-12596500D02*
X11660500Y-12676500D01*
X11660500Y-12596500D02*
X11580500Y-12676500D01*
X11580500Y-12850500D02*
X11660500Y-12930500D01*
X11660500Y-12850500D02*
X11580500Y-12930500D01*
X17613000Y-3833500D02*
X17693000Y-3913500D01*
X17693000Y-3833500D02*
X17613000Y-3913500D01*
X17613000Y-4087500D02*
X17693000Y-4167500D01*
X17693000Y-4087500D02*
X17613000Y-4167500D01*
X17613000Y-4341500D02*
X17693000Y-4421500D01*
X17693000Y-4341500D02*
X17613000Y-4421500D01*
X17613000Y-4595500D02*
X17693000Y-4675500D01*
X17693000Y-4595500D02*
X17613000Y-4675500D01*
X17613000Y-4849500D02*
X17693000Y-4929500D01*
X17693000Y-4849500D02*
X17613000Y-4929500D01*
X17613000Y-5103500D02*
X17693000Y-5183500D01*
X17693000Y-5103500D02*
X17613000Y-5183500D01*
X17613000Y-5357500D02*
X17693000Y-5437500D01*
X17693000Y-5357500D02*
X17613000Y-5437500D01*
X17613000Y-5611500D02*
X17693000Y-5691500D01*
X17693000Y-5611500D02*
X17613000Y-5691500D01*
X17613000Y-5865500D02*
X17693000Y-5945500D01*
X17693000Y-5865500D02*
X17613000Y-5945500D01*
X17613000Y-6119500D02*
X17693000Y-6199500D01*
X17693000Y-6119500D02*
X17613000Y-6199500D01*
X17613000Y-6373500D02*
X17693000Y-6453500D01*
X17693000Y-6373500D02*
X17613000Y-6453500D01*
X17613000Y-6627500D02*
X17693000Y-6707500D01*
X17693000Y-6627500D02*
X17613000Y-6707500D01*
X17613000Y-6881500D02*
X17693000Y-6961500D01*
X17693000Y-6881500D02*
X17613000Y-6961500D01*
X17613000Y-7135500D02*
X17693000Y-7215500D01*
X17693000Y-7135500D02*
X17613000Y-7215500D01*
X17613000Y-7389500D02*
X17693000Y-7469500D01*
X17693000Y-7389500D02*
X17613000Y-7469500D01*
X17613000Y-7643500D02*
X17693000Y-7723500D01*
X17693000Y-7643500D02*
X17613000Y-7723500D01*
X17613000Y-7897500D02*
X17693000Y-7977500D01*
X17693000Y-7897500D02*
X17613000Y-7977500D01*
X17613000Y-8151500D02*
X17693000Y-8231500D01*
X17693000Y-8151500D02*
X17613000Y-8231500D01*
X17613000Y-8405500D02*
X17693000Y-8485500D01*
X17693000Y-8405500D02*
X17613000Y-8485500D01*
X17613000Y-8659500D02*
X17693000Y-8739500D01*
X17693000Y-8659500D02*
X17613000Y-8739500D01*
X19137000Y-3833500D02*
X19217000Y-3913500D01*
X19217000Y-3833500D02*
X19137000Y-3913500D01*
X19137000Y-4087500D02*
X19217000Y-4167500D01*
X19217000Y-4087500D02*
X19137000Y-4167500D01*
X19137000Y-4341500D02*
X19217000Y-4421500D01*
X19217000Y-4341500D02*
X19137000Y-4421500D01*
X19137000Y-4595500D02*
X19217000Y-4675500D01*
X19217000Y-4595500D02*
X19137000Y-4675500D01*
X19137000Y-4849500D02*
X19217000Y-4929500D01*
X19217000Y-4849500D02*
X19137000Y-4929500D01*
X19137000Y-5103500D02*
X19217000Y-5183500D01*
X19217000Y-5103500D02*
X19137000Y-5183500D01*
X19137000Y-5357500D02*
X19217000Y-5437500D01*
X19217000Y-5357500D02*
X19137000Y-5437500D01*
X19137000Y-5611500D02*
X19217000Y-5691500D01*
X19217000Y-5611500D02*
X19137000Y-5691500D01*
X19137000Y-5865500D02*
X19217000Y-5945500D01*
X19217000Y-5865500D02*
X19137000Y-5945500D01*
X19137000Y-6119500D02*
X19217000Y-6199500D01*
X19217000Y-6119500D02*
X19137000Y-6199500D01*
X19137000Y-6373500D02*
X19217000Y-6453500D01*
X19217000Y-6373500D02*
X19137000Y-6453500D01*
X19137000Y-6627500D02*
X19217000Y-6707500D01*
X19217000Y-6627500D02*
X19137000Y-6707500D01*
X19137000Y-6881500D02*
X19217000Y-6961500D01*
X19217000Y-6881500D02*
X19137000Y-6961500D01*
X19137000Y-7135500D02*
X19217000Y-7215500D01*
X19217000Y-7135500D02*
X19137000Y-7215500D01*
X19137000Y-7389500D02*
X19217000Y-7469500D01*
X19217000Y-7389500D02*
X19137000Y-7469500D01*
X19137000Y-7643500D02*
X19217000Y-7723500D01*
X19217000Y-7643500D02*
X19137000Y-7723500D01*
X19137000Y-7897500D02*
X19217000Y-7977500D01*
X19217000Y-7897500D02*
X19137000Y-7977500D01*
X19137000Y-8151500D02*
X19217000Y-8231500D01*
X19217000Y-8151500D02*
X19137000Y-8231500D01*
X19137000Y-8405500D02*
X19217000Y-8485500D01*
X19217000Y-8405500D02*
X19137000Y-8485500D01*
X19137000Y-8659500D02*
X19217000Y-8739500D01*
X19217000Y-8659500D02*
X19137000Y-8739500D01*
D11*
X10066527Y-13524484D02*
X10066527Y-13324484D01*
X10066527Y-13324484D02*
X10114146Y-13324484D01*
X10114146Y-13324484D02*
X10142717Y-13334008D01*
X10142717Y-13334008D02*
X10161765Y-13353055D01*
X10161765Y-13353055D02*
X10171289Y-13372103D01*
X10171289Y-13372103D02*
X10180813Y-13410198D01*
X10180813Y-13410198D02*
X10180813Y-13438769D01*
X10180813Y-13438769D02*
X10171289Y-13476865D01*
X10171289Y-13476865D02*
X10161765Y-13495912D01*
X10161765Y-13495912D02*
X10142717Y-13514960D01*
X10142717Y-13514960D02*
X10114146Y-13524484D01*
X10114146Y-13524484D02*
X10066527Y-13524484D01*
X10266527Y-13524484D02*
X10266527Y-13391150D01*
X10266527Y-13429246D02*
X10276051Y-13410198D01*
X10276051Y-13410198D02*
X10285574Y-13400674D01*
X10285574Y-13400674D02*
X10304622Y-13391150D01*
X10304622Y-13391150D02*
X10323670Y-13391150D01*
X10390336Y-13524484D02*
X10390336Y-13391150D01*
X10390336Y-13324484D02*
X10380813Y-13334008D01*
X10380813Y-13334008D02*
X10390336Y-13343531D01*
X10390336Y-13343531D02*
X10399860Y-13334008D01*
X10399860Y-13334008D02*
X10390336Y-13324484D01*
X10390336Y-13324484D02*
X10390336Y-13343531D01*
X10514146Y-13524484D02*
X10495098Y-13514960D01*
X10495098Y-13514960D02*
X10485574Y-13495912D01*
X10485574Y-13495912D02*
X10485574Y-13324484D01*
X10618908Y-13524484D02*
X10599860Y-13514960D01*
X10599860Y-13514960D02*
X10590336Y-13495912D01*
X10590336Y-13495912D02*
X10590336Y-13324484D01*
X10847479Y-13524484D02*
X10847479Y-13324484D01*
X10847479Y-13324484D02*
X10914146Y-13467341D01*
X10914146Y-13467341D02*
X10980813Y-13324484D01*
X10980813Y-13324484D02*
X10980813Y-13524484D01*
X11161765Y-13524484D02*
X11161765Y-13419722D01*
X11161765Y-13419722D02*
X11152241Y-13400674D01*
X11152241Y-13400674D02*
X11133194Y-13391150D01*
X11133194Y-13391150D02*
X11095098Y-13391150D01*
X11095098Y-13391150D02*
X11076051Y-13400674D01*
X11161765Y-13514960D02*
X11142717Y-13524484D01*
X11142717Y-13524484D02*
X11095098Y-13524484D01*
X11095098Y-13524484D02*
X11076051Y-13514960D01*
X11076051Y-13514960D02*
X11066527Y-13495912D01*
X11066527Y-13495912D02*
X11066527Y-13476865D01*
X11066527Y-13476865D02*
X11076051Y-13457817D01*
X11076051Y-13457817D02*
X11095098Y-13448293D01*
X11095098Y-13448293D02*
X11142717Y-13448293D01*
X11142717Y-13448293D02*
X11161765Y-13438769D01*
X11257003Y-13391150D02*
X11257003Y-13591150D01*
X11257003Y-13400674D02*
X11276051Y-13391150D01*
X11276051Y-13391150D02*
X11314146Y-13391150D01*
X11314146Y-13391150D02*
X11333193Y-13400674D01*
X11333193Y-13400674D02*
X11342717Y-13410198D01*
X11342717Y-13410198D02*
X11352241Y-13429246D01*
X11352241Y-13429246D02*
X11352241Y-13486388D01*
X11352241Y-13486388D02*
X11342717Y-13505436D01*
X11342717Y-13505436D02*
X11333193Y-13514960D01*
X11333193Y-13514960D02*
X11314146Y-13524484D01*
X11314146Y-13524484D02*
X11276051Y-13524484D01*
X11276051Y-13524484D02*
X11257003Y-13514960D01*
X11437955Y-13505436D02*
X11447479Y-13514960D01*
X11447479Y-13514960D02*
X11437955Y-13524484D01*
X11437955Y-13524484D02*
X11428432Y-13514960D01*
X11428432Y-13514960D02*
X11437955Y-13505436D01*
X11437955Y-13505436D02*
X11437955Y-13524484D01*
X11437955Y-13400674D02*
X11447479Y-13410198D01*
X11447479Y-13410198D02*
X11437955Y-13419722D01*
X11437955Y-13419722D02*
X11428432Y-13410198D01*
X11428432Y-13410198D02*
X11437955Y-13400674D01*
X11437955Y-13400674D02*
X11437955Y-13419722D01*
D12*
X9725750Y-13813000D02*
X9805750Y-13893000D01*
X9805750Y-13813000D02*
X9725750Y-13893000D01*
D11*
X10104622Y-13744484D02*
X10123670Y-13744484D01*
X10123670Y-13744484D02*
X10142717Y-13754008D01*
X10142717Y-13754008D02*
X10152241Y-13763531D01*
X10152241Y-13763531D02*
X10161765Y-13782579D01*
X10161765Y-13782579D02*
X10171289Y-13820674D01*
X10171289Y-13820674D02*
X10171289Y-13868293D01*
X10171289Y-13868293D02*
X10161765Y-13906388D01*
X10161765Y-13906388D02*
X10152241Y-13925436D01*
X10152241Y-13925436D02*
X10142717Y-13934960D01*
X10142717Y-13934960D02*
X10123670Y-13944484D01*
X10123670Y-13944484D02*
X10104622Y-13944484D01*
X10104622Y-13944484D02*
X10085574Y-13934960D01*
X10085574Y-13934960D02*
X10076051Y-13925436D01*
X10076051Y-13925436D02*
X10066527Y-13906388D01*
X10066527Y-13906388D02*
X10057003Y-13868293D01*
X10057003Y-13868293D02*
X10057003Y-13820674D01*
X10057003Y-13820674D02*
X10066527Y-13782579D01*
X10066527Y-13782579D02*
X10076051Y-13763531D01*
X10076051Y-13763531D02*
X10085574Y-13754008D01*
X10085574Y-13754008D02*
X10104622Y-13744484D01*
X10257003Y-13925436D02*
X10266527Y-13934960D01*
X10266527Y-13934960D02*
X10257003Y-13944484D01*
X10257003Y-13944484D02*
X10247479Y-13934960D01*
X10247479Y-13934960D02*
X10257003Y-13925436D01*
X10257003Y-13925436D02*
X10257003Y-13944484D01*
X10380813Y-13830198D02*
X10361765Y-13820674D01*
X10361765Y-13820674D02*
X10352241Y-13811150D01*
X10352241Y-13811150D02*
X10342717Y-13792103D01*
X10342717Y-13792103D02*
X10342717Y-13782579D01*
X10342717Y-13782579D02*
X10352241Y-13763531D01*
X10352241Y-13763531D02*
X10361765Y-13754008D01*
X10361765Y-13754008D02*
X10380813Y-13744484D01*
X10380813Y-13744484D02*
X10418908Y-13744484D01*
X10418908Y-13744484D02*
X10437955Y-13754008D01*
X10437955Y-13754008D02*
X10447479Y-13763531D01*
X10447479Y-13763531D02*
X10457003Y-13782579D01*
X10457003Y-13782579D02*
X10457003Y-13792103D01*
X10457003Y-13792103D02*
X10447479Y-13811150D01*
X10447479Y-13811150D02*
X10437955Y-13820674D01*
X10437955Y-13820674D02*
X10418908Y-13830198D01*
X10418908Y-13830198D02*
X10380813Y-13830198D01*
X10380813Y-13830198D02*
X10361765Y-13839722D01*
X10361765Y-13839722D02*
X10352241Y-13849246D01*
X10352241Y-13849246D02*
X10342717Y-13868293D01*
X10342717Y-13868293D02*
X10342717Y-13906388D01*
X10342717Y-13906388D02*
X10352241Y-13925436D01*
X10352241Y-13925436D02*
X10361765Y-13934960D01*
X10361765Y-13934960D02*
X10380813Y-13944484D01*
X10380813Y-13944484D02*
X10418908Y-13944484D01*
X10418908Y-13944484D02*
X10437955Y-13934960D01*
X10437955Y-13934960D02*
X10447479Y-13925436D01*
X10447479Y-13925436D02*
X10457003Y-13906388D01*
X10457003Y-13906388D02*
X10457003Y-13868293D01*
X10457003Y-13868293D02*
X10447479Y-13849246D01*
X10447479Y-13849246D02*
X10437955Y-13839722D01*
X10437955Y-13839722D02*
X10418908Y-13830198D01*
X10580813Y-13744484D02*
X10599860Y-13744484D01*
X10599860Y-13744484D02*
X10618908Y-13754008D01*
X10618908Y-13754008D02*
X10628432Y-13763531D01*
X10628432Y-13763531D02*
X10637955Y-13782579D01*
X10637955Y-13782579D02*
X10647479Y-13820674D01*
X10647479Y-13820674D02*
X10647479Y-13868293D01*
X10647479Y-13868293D02*
X10637955Y-13906388D01*
X10637955Y-13906388D02*
X10628432Y-13925436D01*
X10628432Y-13925436D02*
X10618908Y-13934960D01*
X10618908Y-13934960D02*
X10599860Y-13944484D01*
X10599860Y-13944484D02*
X10580813Y-13944484D01*
X10580813Y-13944484D02*
X10561765Y-13934960D01*
X10561765Y-13934960D02*
X10552241Y-13925436D01*
X10552241Y-13925436D02*
X10542717Y-13906388D01*
X10542717Y-13906388D02*
X10533194Y-13868293D01*
X10533194Y-13868293D02*
X10533194Y-13820674D01*
X10533194Y-13820674D02*
X10542717Y-13782579D01*
X10542717Y-13782579D02*
X10552241Y-13763531D01*
X10552241Y-13763531D02*
X10561765Y-13754008D01*
X10561765Y-13754008D02*
X10580813Y-13744484D01*
X10771289Y-13744484D02*
X10790336Y-13744484D01*
X10790336Y-13744484D02*
X10809384Y-13754008D01*
X10809384Y-13754008D02*
X10818908Y-13763531D01*
X10818908Y-13763531D02*
X10828432Y-13782579D01*
X10828432Y-13782579D02*
X10837955Y-13820674D01*
X10837955Y-13820674D02*
X10837955Y-13868293D01*
X10837955Y-13868293D02*
X10828432Y-13906388D01*
X10828432Y-13906388D02*
X10818908Y-13925436D01*
X10818908Y-13925436D02*
X10809384Y-13934960D01*
X10809384Y-13934960D02*
X10790336Y-13944484D01*
X10790336Y-13944484D02*
X10771289Y-13944484D01*
X10771289Y-13944484D02*
X10752241Y-13934960D01*
X10752241Y-13934960D02*
X10742717Y-13925436D01*
X10742717Y-13925436D02*
X10733194Y-13906388D01*
X10733194Y-13906388D02*
X10723670Y-13868293D01*
X10723670Y-13868293D02*
X10723670Y-13820674D01*
X10723670Y-13820674D02*
X10733194Y-13782579D01*
X10733194Y-13782579D02*
X10742717Y-13763531D01*
X10742717Y-13763531D02*
X10752241Y-13754008D01*
X10752241Y-13754008D02*
X10771289Y-13744484D01*
X10923670Y-13944484D02*
X10923670Y-13811150D01*
X10923670Y-13830198D02*
X10933194Y-13820674D01*
X10933194Y-13820674D02*
X10952241Y-13811150D01*
X10952241Y-13811150D02*
X10980813Y-13811150D01*
X10980813Y-13811150D02*
X10999860Y-13820674D01*
X10999860Y-13820674D02*
X11009384Y-13839722D01*
X11009384Y-13839722D02*
X11009384Y-13944484D01*
X11009384Y-13839722D02*
X11018908Y-13820674D01*
X11018908Y-13820674D02*
X11037955Y-13811150D01*
X11037955Y-13811150D02*
X11066527Y-13811150D01*
X11066527Y-13811150D02*
X11085575Y-13820674D01*
X11085575Y-13820674D02*
X11095098Y-13839722D01*
X11095098Y-13839722D02*
X11095098Y-13944484D01*
X11190336Y-13944484D02*
X11190336Y-13811150D01*
X11190336Y-13830198D02*
X11199860Y-13820674D01*
X11199860Y-13820674D02*
X11218908Y-13811150D01*
X11218908Y-13811150D02*
X11247479Y-13811150D01*
X11247479Y-13811150D02*
X11266527Y-13820674D01*
X11266527Y-13820674D02*
X11276051Y-13839722D01*
X11276051Y-13839722D02*
X11276051Y-13944484D01*
X11276051Y-13839722D02*
X11285574Y-13820674D01*
X11285574Y-13820674D02*
X11304622Y-13811150D01*
X11304622Y-13811150D02*
X11333193Y-13811150D01*
X11333193Y-13811150D02*
X11352241Y-13820674D01*
X11352241Y-13820674D02*
X11361765Y-13839722D01*
X11361765Y-13839722D02*
X11361765Y-13944484D01*
X11752241Y-13734960D02*
X11580813Y-13992103D01*
X12009384Y-13744484D02*
X12028432Y-13744484D01*
X12028432Y-13744484D02*
X12047479Y-13754008D01*
X12047479Y-13754008D02*
X12057003Y-13763531D01*
X12057003Y-13763531D02*
X12066527Y-13782579D01*
X12066527Y-13782579D02*
X12076051Y-13820674D01*
X12076051Y-13820674D02*
X12076051Y-13868293D01*
X12076051Y-13868293D02*
X12066527Y-13906388D01*
X12066527Y-13906388D02*
X12057003Y-13925436D01*
X12057003Y-13925436D02*
X12047479Y-13934960D01*
X12047479Y-13934960D02*
X12028432Y-13944484D01*
X12028432Y-13944484D02*
X12009384Y-13944484D01*
X12009384Y-13944484D02*
X11990336Y-13934960D01*
X11990336Y-13934960D02*
X11980813Y-13925436D01*
X11980813Y-13925436D02*
X11971289Y-13906388D01*
X11971289Y-13906388D02*
X11961765Y-13868293D01*
X11961765Y-13868293D02*
X11961765Y-13820674D01*
X11961765Y-13820674D02*
X11971289Y-13782579D01*
X11971289Y-13782579D02*
X11980813Y-13763531D01*
X11980813Y-13763531D02*
X11990336Y-13754008D01*
X11990336Y-13754008D02*
X12009384Y-13744484D01*
X12161765Y-13925436D02*
X12171289Y-13934960D01*
X12171289Y-13934960D02*
X12161765Y-13944484D01*
X12161765Y-13944484D02*
X12152241Y-13934960D01*
X12152241Y-13934960D02*
X12161765Y-13925436D01*
X12161765Y-13925436D02*
X12161765Y-13944484D01*
X12295098Y-13744484D02*
X12314146Y-13744484D01*
X12314146Y-13744484D02*
X12333194Y-13754008D01*
X12333194Y-13754008D02*
X12342717Y-13763531D01*
X12342717Y-13763531D02*
X12352241Y-13782579D01*
X12352241Y-13782579D02*
X12361765Y-13820674D01*
X12361765Y-13820674D02*
X12361765Y-13868293D01*
X12361765Y-13868293D02*
X12352241Y-13906388D01*
X12352241Y-13906388D02*
X12342717Y-13925436D01*
X12342717Y-13925436D02*
X12333194Y-13934960D01*
X12333194Y-13934960D02*
X12314146Y-13944484D01*
X12314146Y-13944484D02*
X12295098Y-13944484D01*
X12295098Y-13944484D02*
X12276051Y-13934960D01*
X12276051Y-13934960D02*
X12266527Y-13925436D01*
X12266527Y-13925436D02*
X12257003Y-13906388D01*
X12257003Y-13906388D02*
X12247479Y-13868293D01*
X12247479Y-13868293D02*
X12247479Y-13820674D01*
X12247479Y-13820674D02*
X12257003Y-13782579D01*
X12257003Y-13782579D02*
X12266527Y-13763531D01*
X12266527Y-13763531D02*
X12276051Y-13754008D01*
X12276051Y-13754008D02*
X12295098Y-13744484D01*
X12428432Y-13744484D02*
X12552241Y-13744484D01*
X12552241Y-13744484D02*
X12485575Y-13820674D01*
X12485575Y-13820674D02*
X12514146Y-13820674D01*
X12514146Y-13820674D02*
X12533194Y-13830198D01*
X12533194Y-13830198D02*
X12542717Y-13839722D01*
X12542717Y-13839722D02*
X12552241Y-13858769D01*
X12552241Y-13858769D02*
X12552241Y-13906388D01*
X12552241Y-13906388D02*
X12542717Y-13925436D01*
X12542717Y-13925436D02*
X12533194Y-13934960D01*
X12533194Y-13934960D02*
X12514146Y-13944484D01*
X12514146Y-13944484D02*
X12457003Y-13944484D01*
X12457003Y-13944484D02*
X12437956Y-13934960D01*
X12437956Y-13934960D02*
X12428432Y-13925436D01*
X12742717Y-13944484D02*
X12628432Y-13944484D01*
X12685575Y-13944484D02*
X12685575Y-13744484D01*
X12685575Y-13744484D02*
X12666527Y-13773055D01*
X12666527Y-13773055D02*
X12647479Y-13792103D01*
X12647479Y-13792103D02*
X12628432Y-13801627D01*
X12923670Y-13744484D02*
X12828432Y-13744484D01*
X12828432Y-13744484D02*
X12818908Y-13839722D01*
X12818908Y-13839722D02*
X12828432Y-13830198D01*
X12828432Y-13830198D02*
X12847479Y-13820674D01*
X12847479Y-13820674D02*
X12895098Y-13820674D01*
X12895098Y-13820674D02*
X12914146Y-13830198D01*
X12914146Y-13830198D02*
X12923670Y-13839722D01*
X12923670Y-13839722D02*
X12933194Y-13858769D01*
X12933194Y-13858769D02*
X12933194Y-13906388D01*
X12933194Y-13906388D02*
X12923670Y-13925436D01*
X12923670Y-13925436D02*
X12914146Y-13934960D01*
X12914146Y-13934960D02*
X12895098Y-13944484D01*
X12895098Y-13944484D02*
X12847479Y-13944484D01*
X12847479Y-13944484D02*
X12828432Y-13934960D01*
X12828432Y-13934960D02*
X12818908Y-13925436D01*
X13009384Y-13744484D02*
X13009384Y-13782579D01*
X13085575Y-13744484D02*
X13085575Y-13782579D01*
X13380813Y-14020674D02*
X13371289Y-14011150D01*
X13371289Y-14011150D02*
X13352241Y-13982579D01*
X13352241Y-13982579D02*
X13342718Y-13963531D01*
X13342718Y-13963531D02*
X13333194Y-13934960D01*
X13333194Y-13934960D02*
X13323670Y-13887341D01*
X13323670Y-13887341D02*
X13323670Y-13849246D01*
X13323670Y-13849246D02*
X13333194Y-13801627D01*
X13333194Y-13801627D02*
X13342718Y-13773055D01*
X13342718Y-13773055D02*
X13352241Y-13754008D01*
X13352241Y-13754008D02*
X13371289Y-13725436D01*
X13371289Y-13725436D02*
X13380813Y-13715912D01*
X13485575Y-13830198D02*
X13466527Y-13820674D01*
X13466527Y-13820674D02*
X13457003Y-13811150D01*
X13457003Y-13811150D02*
X13447479Y-13792103D01*
X13447479Y-13792103D02*
X13447479Y-13782579D01*
X13447479Y-13782579D02*
X13457003Y-13763531D01*
X13457003Y-13763531D02*
X13466527Y-13754008D01*
X13466527Y-13754008D02*
X13485575Y-13744484D01*
X13485575Y-13744484D02*
X13523670Y-13744484D01*
X13523670Y-13744484D02*
X13542718Y-13754008D01*
X13542718Y-13754008D02*
X13552241Y-13763531D01*
X13552241Y-13763531D02*
X13561765Y-13782579D01*
X13561765Y-13782579D02*
X13561765Y-13792103D01*
X13561765Y-13792103D02*
X13552241Y-13811150D01*
X13552241Y-13811150D02*
X13542718Y-13820674D01*
X13542718Y-13820674D02*
X13523670Y-13830198D01*
X13523670Y-13830198D02*
X13485575Y-13830198D01*
X13485575Y-13830198D02*
X13466527Y-13839722D01*
X13466527Y-13839722D02*
X13457003Y-13849246D01*
X13457003Y-13849246D02*
X13447479Y-13868293D01*
X13447479Y-13868293D02*
X13447479Y-13906388D01*
X13447479Y-13906388D02*
X13457003Y-13925436D01*
X13457003Y-13925436D02*
X13466527Y-13934960D01*
X13466527Y-13934960D02*
X13485575Y-13944484D01*
X13485575Y-13944484D02*
X13523670Y-13944484D01*
X13523670Y-13944484D02*
X13542718Y-13934960D01*
X13542718Y-13934960D02*
X13552241Y-13925436D01*
X13552241Y-13925436D02*
X13561765Y-13906388D01*
X13561765Y-13906388D02*
X13561765Y-13868293D01*
X13561765Y-13868293D02*
X13552241Y-13849246D01*
X13552241Y-13849246D02*
X13542718Y-13839722D01*
X13542718Y-13839722D02*
X13523670Y-13830198D01*
X13685575Y-13744484D02*
X13704622Y-13744484D01*
X13704622Y-13744484D02*
X13723670Y-13754008D01*
X13723670Y-13754008D02*
X13733194Y-13763531D01*
X13733194Y-13763531D02*
X13742718Y-13782579D01*
X13742718Y-13782579D02*
X13752241Y-13820674D01*
X13752241Y-13820674D02*
X13752241Y-13868293D01*
X13752241Y-13868293D02*
X13742718Y-13906388D01*
X13742718Y-13906388D02*
X13733194Y-13925436D01*
X13733194Y-13925436D02*
X13723670Y-13934960D01*
X13723670Y-13934960D02*
X13704622Y-13944484D01*
X13704622Y-13944484D02*
X13685575Y-13944484D01*
X13685575Y-13944484D02*
X13666527Y-13934960D01*
X13666527Y-13934960D02*
X13657003Y-13925436D01*
X13657003Y-13925436D02*
X13647479Y-13906388D01*
X13647479Y-13906388D02*
X13637956Y-13868293D01*
X13637956Y-13868293D02*
X13637956Y-13820674D01*
X13637956Y-13820674D02*
X13647479Y-13782579D01*
X13647479Y-13782579D02*
X13657003Y-13763531D01*
X13657003Y-13763531D02*
X13666527Y-13754008D01*
X13666527Y-13754008D02*
X13685575Y-13744484D01*
X13990337Y-13944484D02*
X13990337Y-13744484D01*
X14076051Y-13944484D02*
X14076051Y-13839722D01*
X14076051Y-13839722D02*
X14066527Y-13820674D01*
X14066527Y-13820674D02*
X14047480Y-13811150D01*
X14047480Y-13811150D02*
X14018908Y-13811150D01*
X14018908Y-13811150D02*
X13999860Y-13820674D01*
X13999860Y-13820674D02*
X13990337Y-13830198D01*
X14199860Y-13944484D02*
X14180813Y-13934960D01*
X14180813Y-13934960D02*
X14171289Y-13925436D01*
X14171289Y-13925436D02*
X14161765Y-13906388D01*
X14161765Y-13906388D02*
X14161765Y-13849246D01*
X14161765Y-13849246D02*
X14171289Y-13830198D01*
X14171289Y-13830198D02*
X14180813Y-13820674D01*
X14180813Y-13820674D02*
X14199860Y-13811150D01*
X14199860Y-13811150D02*
X14228432Y-13811150D01*
X14228432Y-13811150D02*
X14247480Y-13820674D01*
X14247480Y-13820674D02*
X14257003Y-13830198D01*
X14257003Y-13830198D02*
X14266527Y-13849246D01*
X14266527Y-13849246D02*
X14266527Y-13906388D01*
X14266527Y-13906388D02*
X14257003Y-13925436D01*
X14257003Y-13925436D02*
X14247480Y-13934960D01*
X14247480Y-13934960D02*
X14228432Y-13944484D01*
X14228432Y-13944484D02*
X14199860Y-13944484D01*
X14380813Y-13944484D02*
X14361765Y-13934960D01*
X14361765Y-13934960D02*
X14352241Y-13915912D01*
X14352241Y-13915912D02*
X14352241Y-13744484D01*
X14533194Y-13934960D02*
X14514146Y-13944484D01*
X14514146Y-13944484D02*
X14476051Y-13944484D01*
X14476051Y-13944484D02*
X14457003Y-13934960D01*
X14457003Y-13934960D02*
X14447480Y-13915912D01*
X14447480Y-13915912D02*
X14447480Y-13839722D01*
X14447480Y-13839722D02*
X14457003Y-13820674D01*
X14457003Y-13820674D02*
X14476051Y-13811150D01*
X14476051Y-13811150D02*
X14514146Y-13811150D01*
X14514146Y-13811150D02*
X14533194Y-13820674D01*
X14533194Y-13820674D02*
X14542718Y-13839722D01*
X14542718Y-13839722D02*
X14542718Y-13858769D01*
X14542718Y-13858769D02*
X14447480Y-13877817D01*
X14618908Y-13934960D02*
X14637956Y-13944484D01*
X14637956Y-13944484D02*
X14676051Y-13944484D01*
X14676051Y-13944484D02*
X14695099Y-13934960D01*
X14695099Y-13934960D02*
X14704622Y-13915912D01*
X14704622Y-13915912D02*
X14704622Y-13906388D01*
X14704622Y-13906388D02*
X14695099Y-13887341D01*
X14695099Y-13887341D02*
X14676051Y-13877817D01*
X14676051Y-13877817D02*
X14647480Y-13877817D01*
X14647480Y-13877817D02*
X14628432Y-13868293D01*
X14628432Y-13868293D02*
X14618908Y-13849246D01*
X14618908Y-13849246D02*
X14618908Y-13839722D01*
X14618908Y-13839722D02*
X14628432Y-13820674D01*
X14628432Y-13820674D02*
X14647480Y-13811150D01*
X14647480Y-13811150D02*
X14676051Y-13811150D01*
X14676051Y-13811150D02*
X14695099Y-13820674D01*
X14771289Y-14020674D02*
X14780813Y-14011150D01*
X14780813Y-14011150D02*
X14799861Y-13982579D01*
X14799861Y-13982579D02*
X14809384Y-13963531D01*
X14809384Y-13963531D02*
X14818908Y-13934960D01*
X14818908Y-13934960D02*
X14828432Y-13887341D01*
X14828432Y-13887341D02*
X14828432Y-13849246D01*
X14828432Y-13849246D02*
X14818908Y-13801627D01*
X14818908Y-13801627D02*
X14809384Y-13773055D01*
X14809384Y-13773055D02*
X14799861Y-13754008D01*
X14799861Y-13754008D02*
X14780813Y-13725436D01*
X14780813Y-13725436D02*
X14771289Y-13715912D01*
M02*
