%TF.GenerationSoftware,KiCad,Pcbnew,7.0.7*%
%TF.CreationDate,2024-01-01T13:21:05+01:00*%
%TF.ProjectId,A500-Kickadapter,41353030-2d4b-4696-936b-616461707465,rev?*%
%TF.SameCoordinates,Original*%
%TF.FileFunction,Soldermask,Top*%
%TF.FilePolarity,Negative*%
%FSLAX46Y46*%
G04 Gerber Fmt 4.6, Leading zero omitted, Abs format (unit mm)*
G04 Created by KiCad (PCBNEW 7.0.7) date 2024-01-01 13:21:05*
%MOMM*%
%LPD*%
G01*
G04 APERTURE LIST*
%ADD10R,2.400000X1.600000*%
%ADD11O,2.400000X1.600000*%
G04 APERTURE END LIST*
D10*
%TO.C,SOCKET_AMIGA1*%
X100965000Y-80645000D03*
D11*
X100965000Y-83185000D03*
X100965000Y-85725000D03*
X100965000Y-88265000D03*
X100965000Y-90805000D03*
X100965000Y-93345000D03*
X100965000Y-95885000D03*
X100965000Y-98425000D03*
X100965000Y-100965000D03*
X100965000Y-103505000D03*
X100965000Y-106045000D03*
X100965000Y-108585000D03*
X100965000Y-111125000D03*
X100965000Y-113665000D03*
X100965000Y-116205000D03*
X100965000Y-118745000D03*
X100965000Y-121285000D03*
X100965000Y-123825000D03*
X100965000Y-126365000D03*
X100965000Y-128905000D03*
X116205000Y-128905000D03*
X116205000Y-126365000D03*
X116205000Y-123825000D03*
X116205000Y-121285000D03*
X116205000Y-118745000D03*
X116205000Y-116205000D03*
X116205000Y-113665000D03*
X116205000Y-111125000D03*
X116205000Y-108585000D03*
X116205000Y-106045000D03*
X116205000Y-103505000D03*
X116205000Y-100965000D03*
X116205000Y-98425000D03*
X116205000Y-95885000D03*
X116205000Y-93345000D03*
X116205000Y-90805000D03*
X116205000Y-88265000D03*
X116205000Y-85725000D03*
X116205000Y-83185000D03*
X116205000Y-80645000D03*
%TD*%
D10*
%TO.C,SOCKET_EPROM1*%
X176530000Y-38735000D03*
D11*
X176530000Y-41275000D03*
X176530000Y-43815000D03*
X176530000Y-46355000D03*
X176530000Y-48895000D03*
X176530000Y-51435000D03*
X176530000Y-53975000D03*
X176530000Y-56515000D03*
X176530000Y-59055000D03*
X176530000Y-61595000D03*
X176530000Y-64135000D03*
X176530000Y-66675000D03*
X176530000Y-69215000D03*
X176530000Y-71755000D03*
X176530000Y-74295000D03*
X176530000Y-76835000D03*
X176530000Y-79375000D03*
X176530000Y-81915000D03*
X176530000Y-84455000D03*
X176530000Y-86995000D03*
X191770000Y-86995000D03*
X191770000Y-84455000D03*
X191770000Y-81915000D03*
X191770000Y-79375000D03*
X191770000Y-76835000D03*
X191770000Y-74295000D03*
X191770000Y-71755000D03*
X191770000Y-69215000D03*
X191770000Y-66675000D03*
X191770000Y-64135000D03*
X191770000Y-61595000D03*
X191770000Y-59055000D03*
X191770000Y-56515000D03*
X191770000Y-53975000D03*
X191770000Y-51435000D03*
X191770000Y-48895000D03*
X191770000Y-46355000D03*
X191770000Y-43815000D03*
X191770000Y-41275000D03*
X191770000Y-38735000D03*
%TD*%
M02*
