%TF.GenerationSoftware,KiCad,Pcbnew,7.0.7*%
%TF.CreationDate,2024-01-01T13:21:05+01:00*%
%TF.ProjectId,A500-Kickadapter,41353030-2d4b-4696-936b-616461707465,rev?*%
%TF.SameCoordinates,Original*%
%TF.FileFunction,Copper,L2,Bot*%
%TF.FilePolarity,Positive*%
%FSLAX46Y46*%
G04 Gerber Fmt 4.6, Leading zero omitted, Abs format (unit mm)*
G04 Created by KiCad (PCBNEW 7.0.7) date 2024-01-01 13:21:05*
%MOMM*%
%LPD*%
G01*
G04 APERTURE LIST*
%TA.AperFunction,ComponentPad*%
%ADD10R,2.400000X1.600000*%
%TD*%
%TA.AperFunction,ComponentPad*%
%ADD11O,2.400000X1.600000*%
%TD*%
%TA.AperFunction,Conductor*%
%ADD12C,0.508000*%
%TD*%
%TA.AperFunction,Conductor*%
%ADD13C,0.250000*%
%TD*%
G04 APERTURE END LIST*
D10*
%TO.P,SOCKET_AMIGA1,1,1*%
%TO.N,/A17*%
X100965000Y-80645000D03*
D11*
%TO.P,SOCKET_AMIGA1,2,2*%
%TO.N,/A7*%
X100965000Y-83185000D03*
%TO.P,SOCKET_AMIGA1,3,3*%
%TO.N,/A6*%
X100965000Y-85725000D03*
%TO.P,SOCKET_AMIGA1,4,4*%
%TO.N,/A5*%
X100965000Y-88265000D03*
%TO.P,SOCKET_AMIGA1,5,5*%
%TO.N,/A4*%
X100965000Y-90805000D03*
%TO.P,SOCKET_AMIGA1,6,6*%
%TO.N,/A3*%
X100965000Y-93345000D03*
%TO.P,SOCKET_AMIGA1,7,7*%
%TO.N,/A2*%
X100965000Y-95885000D03*
%TO.P,SOCKET_AMIGA1,8,8*%
%TO.N,/A1*%
X100965000Y-98425000D03*
%TO.P,SOCKET_AMIGA1,9,9*%
%TO.N,/A0*%
X100965000Y-100965000D03*
%TO.P,SOCKET_AMIGA1,10,10*%
%TO.N,/~{E}*%
X100965000Y-103505000D03*
%TO.P,SOCKET_AMIGA1,11,11*%
%TO.N,Net-(SOCKET_AMIGA1-Pad11)*%
X100965000Y-106045000D03*
%TO.P,SOCKET_AMIGA1,12,12*%
%TO.N,/~{G}*%
X100965000Y-108585000D03*
%TO.P,SOCKET_AMIGA1,13,13*%
%TO.N,/Q0*%
X100965000Y-111125000D03*
%TO.P,SOCKET_AMIGA1,14,14*%
%TO.N,/Q8*%
X100965000Y-113665000D03*
%TO.P,SOCKET_AMIGA1,15,15*%
%TO.N,/Q1*%
X100965000Y-116205000D03*
%TO.P,SOCKET_AMIGA1,16,16*%
%TO.N,/Q9*%
X100965000Y-118745000D03*
%TO.P,SOCKET_AMIGA1,17,17*%
%TO.N,/Q2*%
X100965000Y-121285000D03*
%TO.P,SOCKET_AMIGA1,18,18*%
%TO.N,/Q10*%
X100965000Y-123825000D03*
%TO.P,SOCKET_AMIGA1,19,19*%
%TO.N,/Q3*%
X100965000Y-126365000D03*
%TO.P,SOCKET_AMIGA1,20,20*%
%TO.N,/Q11*%
X100965000Y-128905000D03*
%TO.P,SOCKET_AMIGA1,21,21*%
%TO.N,Net-(SOCKET_AMIGA1-Pad21)*%
X116205000Y-128905000D03*
%TO.P,SOCKET_AMIGA1,22,22*%
%TO.N,/Q4*%
X116205000Y-126365000D03*
%TO.P,SOCKET_AMIGA1,23,23*%
%TO.N,/Q12*%
X116205000Y-123825000D03*
%TO.P,SOCKET_AMIGA1,24,24*%
%TO.N,/Q5*%
X116205000Y-121285000D03*
%TO.P,SOCKET_AMIGA1,25,25*%
%TO.N,/Q13*%
X116205000Y-118745000D03*
%TO.P,SOCKET_AMIGA1,26,26*%
%TO.N,/Q6*%
X116205000Y-116205000D03*
%TO.P,SOCKET_AMIGA1,27,27*%
%TO.N,/Q14*%
X116205000Y-113665000D03*
%TO.P,SOCKET_AMIGA1,28,28*%
%TO.N,/Q7*%
X116205000Y-111125000D03*
%TO.P,SOCKET_AMIGA1,29,29*%
%TO.N,/Q15*%
X116205000Y-108585000D03*
%TO.P,SOCKET_AMIGA1,30,30*%
%TO.N,Net-(SOCKET_AMIGA1-Pad30)*%
X116205000Y-106045000D03*
%TO.P,SOCKET_AMIGA1,31,31*%
%TO.N,Net-(SOCKET_AMIGA1-Pad31)*%
X116205000Y-103505000D03*
%TO.P,SOCKET_AMIGA1,32,32*%
%TO.N,/A16*%
X116205000Y-100965000D03*
%TO.P,SOCKET_AMIGA1,33,33*%
%TO.N,/A15*%
X116205000Y-98425000D03*
%TO.P,SOCKET_AMIGA1,34,34*%
%TO.N,/A14*%
X116205000Y-95885000D03*
%TO.P,SOCKET_AMIGA1,35,35*%
%TO.N,/A13*%
X116205000Y-93345000D03*
%TO.P,SOCKET_AMIGA1,36,36*%
%TO.N,/A12*%
X116205000Y-90805000D03*
%TO.P,SOCKET_AMIGA1,37,37*%
%TO.N,/A11*%
X116205000Y-88265000D03*
%TO.P,SOCKET_AMIGA1,38,38*%
%TO.N,/A10*%
X116205000Y-85725000D03*
%TO.P,SOCKET_AMIGA1,39,39*%
%TO.N,/A9*%
X116205000Y-83185000D03*
%TO.P,SOCKET_AMIGA1,40,40*%
%TO.N,/A8*%
X116205000Y-80645000D03*
%TD*%
D10*
%TO.P,SOCKET_EPROM1,1,1*%
%TO.N,/A17*%
X176530000Y-38735000D03*
D11*
%TO.P,SOCKET_EPROM1,2,2*%
%TO.N,/A7*%
X176530000Y-41275000D03*
%TO.P,SOCKET_EPROM1,3,3*%
%TO.N,/A6*%
X176530000Y-43815000D03*
%TO.P,SOCKET_EPROM1,4,4*%
%TO.N,/A5*%
X176530000Y-46355000D03*
%TO.P,SOCKET_EPROM1,5,5*%
%TO.N,/A4*%
X176530000Y-48895000D03*
%TO.P,SOCKET_EPROM1,6,6*%
%TO.N,/A3*%
X176530000Y-51435000D03*
%TO.P,SOCKET_EPROM1,7,7*%
%TO.N,/A2*%
X176530000Y-53975000D03*
%TO.P,SOCKET_EPROM1,8,8*%
%TO.N,/A1*%
X176530000Y-56515000D03*
%TO.P,SOCKET_EPROM1,9,9*%
%TO.N,/A0*%
X176530000Y-59055000D03*
%TO.P,SOCKET_EPROM1,10,10*%
%TO.N,/~{E}*%
X176530000Y-61595000D03*
%TO.P,SOCKET_EPROM1,11,11*%
%TO.N,Net-(SOCKET_AMIGA1-Pad11)*%
X176530000Y-64135000D03*
%TO.P,SOCKET_EPROM1,12,12*%
%TO.N,/~{G}*%
X176530000Y-66675000D03*
%TO.P,SOCKET_EPROM1,13,13*%
%TO.N,/Q0*%
X176530000Y-69215000D03*
%TO.P,SOCKET_EPROM1,14,14*%
%TO.N,/Q8*%
X176530000Y-71755000D03*
%TO.P,SOCKET_EPROM1,15,15*%
%TO.N,/Q1*%
X176530000Y-74295000D03*
%TO.P,SOCKET_EPROM1,16,16*%
%TO.N,/Q9*%
X176530000Y-76835000D03*
%TO.P,SOCKET_EPROM1,17,17*%
%TO.N,/Q2*%
X176530000Y-79375000D03*
%TO.P,SOCKET_EPROM1,18,18*%
%TO.N,/Q10*%
X176530000Y-81915000D03*
%TO.P,SOCKET_EPROM1,19,19*%
%TO.N,/Q3*%
X176530000Y-84455000D03*
%TO.P,SOCKET_EPROM1,20,20*%
%TO.N,/Q11*%
X176530000Y-86995000D03*
%TO.P,SOCKET_EPROM1,21,21*%
%TO.N,Net-(SOCKET_AMIGA1-Pad21)*%
X191770000Y-86995000D03*
%TO.P,SOCKET_EPROM1,22,22*%
%TO.N,/Q4*%
X191770000Y-84455000D03*
%TO.P,SOCKET_EPROM1,23,23*%
%TO.N,/Q12*%
X191770000Y-81915000D03*
%TO.P,SOCKET_EPROM1,24,24*%
%TO.N,/Q5*%
X191770000Y-79375000D03*
%TO.P,SOCKET_EPROM1,25,25*%
%TO.N,/Q13*%
X191770000Y-76835000D03*
%TO.P,SOCKET_EPROM1,26,26*%
%TO.N,/Q6*%
X191770000Y-74295000D03*
%TO.P,SOCKET_EPROM1,27,27*%
%TO.N,/Q14*%
X191770000Y-71755000D03*
%TO.P,SOCKET_EPROM1,28,28*%
%TO.N,/Q7*%
X191770000Y-69215000D03*
%TO.P,SOCKET_EPROM1,29,29*%
%TO.N,/Q15*%
X191770000Y-66675000D03*
%TO.P,SOCKET_EPROM1,30,30*%
%TO.N,Net-(SOCKET_AMIGA1-Pad30)*%
X191770000Y-64135000D03*
%TO.P,SOCKET_EPROM1,31,31*%
%TO.N,Net-(SOCKET_AMIGA1-Pad31)*%
X191770000Y-61595000D03*
%TO.P,SOCKET_EPROM1,32,32*%
%TO.N,/A16*%
X191770000Y-59055000D03*
%TO.P,SOCKET_EPROM1,33,33*%
%TO.N,/A15*%
X191770000Y-56515000D03*
%TO.P,SOCKET_EPROM1,34,34*%
%TO.N,/A14*%
X191770000Y-53975000D03*
%TO.P,SOCKET_EPROM1,35,35*%
%TO.N,/A13*%
X191770000Y-51435000D03*
%TO.P,SOCKET_EPROM1,36,36*%
%TO.N,/A12*%
X191770000Y-48895000D03*
%TO.P,SOCKET_EPROM1,37,37*%
%TO.N,/A11*%
X191770000Y-46355000D03*
%TO.P,SOCKET_EPROM1,38,38*%
%TO.N,/A10*%
X191770000Y-43815000D03*
%TO.P,SOCKET_EPROM1,39,39*%
%TO.N,/A9*%
X191770000Y-41275000D03*
%TO.P,SOCKET_EPROM1,40,40*%
%TO.N,/A8*%
X191770000Y-38735000D03*
%TD*%
D12*
%TO.N,Net-(SOCKET_AMIGA1-Pad31)*%
X188277500Y-62865000D02*
X180340000Y-62865000D01*
%TO.N,Net-(SOCKET_AMIGA1-Pad30)*%
X180340000Y-65405000D02*
X180324000Y-65389000D01*
X188277500Y-65405000D02*
X180340000Y-65405000D01*
D13*
X172736000Y-65389000D02*
X180324000Y-65389000D01*
D12*
X172720000Y-65405000D02*
X172736000Y-65389000D01*
D13*
%TO.N,Net-(SOCKET_AMIGA1-Pad31)*%
X172720000Y-62865000D02*
X180340000Y-62865000D01*
D12*
X132080000Y-103505000D02*
X116205000Y-103505000D01*
X172720000Y-62865000D02*
X132080000Y-103505000D01*
X189547500Y-61595000D02*
X188277500Y-62865000D01*
X191770000Y-61595000D02*
X189547500Y-61595000D01*
%TO.N,Net-(SOCKET_AMIGA1-Pad30)*%
X191770000Y-64135000D02*
X189547500Y-64135000D01*
X189547500Y-64135000D02*
X188277500Y-65405000D01*
X172720000Y-65405000D02*
X132080000Y-106045000D01*
D13*
%TO.N,/A17*%
X175260000Y-38735000D02*
X176530000Y-38735000D01*
D12*
%TO.N,Net-(SOCKET_AMIGA1-Pad30)*%
X132080000Y-106045000D02*
X116322500Y-106045000D01*
%TO.N,Net-(SOCKET_AMIGA1-Pad21)*%
X188277500Y-89535000D02*
X171450000Y-89535000D01*
X190817500Y-86995000D02*
X188277500Y-89535000D01*
X191770000Y-86995000D02*
X190817500Y-86995000D01*
X171450000Y-89535000D02*
X171291250Y-89693750D01*
X116322500Y-128905000D02*
X132080000Y-128905000D01*
X132080000Y-128905000D02*
X171291250Y-89693750D01*
%TO.N,/Q4*%
X191770000Y-84455000D02*
X189547500Y-84455000D01*
X172720000Y-85725000D02*
X132080000Y-126365000D01*
X188277500Y-85725000D02*
X180340000Y-85725000D01*
X189547500Y-84455000D02*
X188277500Y-85725000D01*
X116322500Y-126365000D02*
X132080000Y-126365000D01*
D13*
X172720000Y-85725000D02*
X180340000Y-85725000D01*
D12*
%TO.N,/Q12*%
X132080000Y-123825000D02*
X172720000Y-83185000D01*
X189547500Y-81915000D02*
X188277500Y-83185000D01*
X116322500Y-123825000D02*
X132080000Y-123825000D01*
X188277500Y-83185000D02*
X180340000Y-83185000D01*
X191770000Y-81915000D02*
X189547500Y-81915000D01*
D13*
X172720000Y-83185000D02*
X180340000Y-83185000D01*
D12*
%TO.N,/Q5*%
X191770000Y-79375000D02*
X189230000Y-79375000D01*
D13*
X172720000Y-80645000D02*
X180340000Y-80645000D01*
D12*
X187960000Y-80645000D02*
X180340000Y-80645000D01*
X189230000Y-79375000D02*
X187960000Y-80645000D01*
X132080000Y-121285000D02*
X116322500Y-121285000D01*
X172720000Y-80645000D02*
X132080000Y-121285000D01*
%TO.N,/Q13*%
X189547500Y-76835000D02*
X188277500Y-78105000D01*
X188277500Y-78105000D02*
X180340000Y-78105000D01*
X172720000Y-78105000D02*
X132080000Y-118745000D01*
D13*
X172720000Y-78105000D02*
X180340000Y-78105000D01*
D12*
X191770000Y-76835000D02*
X189547500Y-76835000D01*
X116322500Y-118745000D02*
X132080000Y-118745000D01*
D13*
%TO.N,/Q6*%
X172720000Y-75565000D02*
X180340000Y-75565000D01*
D12*
X187960000Y-75565000D02*
X180340000Y-75565000D01*
X189230000Y-74295000D02*
X191770000Y-74295000D01*
X116322500Y-116205000D02*
X132080000Y-116205000D01*
X132080000Y-116205000D02*
X172720000Y-75565000D01*
X187960000Y-75565000D02*
X189230000Y-74295000D01*
%TO.N,/Q14*%
X189230000Y-71755000D02*
X187960000Y-73025000D01*
X132080000Y-113665000D02*
X116322500Y-113665000D01*
X187960000Y-73025000D02*
X180340000Y-73025000D01*
X172720000Y-73025000D02*
X132080000Y-113665000D01*
D13*
X172720000Y-73025000D02*
X180340000Y-73025000D01*
D12*
X191770000Y-71755000D02*
X189230000Y-71755000D01*
%TO.N,/Q7*%
X188277500Y-70485000D02*
X180340000Y-70485000D01*
D13*
X172720000Y-70485000D02*
X180340000Y-70485000D01*
D12*
X189547500Y-69215000D02*
X188277500Y-70485000D01*
X116322500Y-111125000D02*
X132080000Y-111125000D01*
X132080000Y-111125000D02*
X172720000Y-70485000D01*
X191770000Y-69215000D02*
X189547500Y-69215000D01*
D13*
%TO.N,/Q15*%
X172720000Y-67945000D02*
X180340000Y-67945000D01*
D12*
X187960000Y-67945000D02*
X180340000Y-67945000D01*
X189230000Y-66675000D02*
X187960000Y-67945000D01*
X191770000Y-66675000D02*
X189230000Y-66675000D01*
X132080000Y-108585000D02*
X116322500Y-108585000D01*
X172720000Y-67945000D02*
X132080000Y-108585000D01*
%TO.N,/A16*%
X188277500Y-60325000D02*
X180340000Y-60325000D01*
X132080000Y-100965000D02*
X116322500Y-100965000D01*
D13*
X172720000Y-60325000D02*
X180340000Y-60325000D01*
D12*
X189547500Y-59055000D02*
X188277500Y-60325000D01*
X191770000Y-59055000D02*
X189547500Y-59055000D01*
X172720000Y-60325000D02*
X132080000Y-100965000D01*
%TO.N,/A15*%
X187960000Y-57785000D02*
X189230000Y-56515000D01*
X116322500Y-98425000D02*
X132080000Y-98425000D01*
D13*
X172720000Y-57785000D02*
X180340000Y-57785000D01*
D12*
X132080000Y-98425000D02*
X172720000Y-57785000D01*
X189230000Y-56515000D02*
X191770000Y-56515000D01*
X187960000Y-57785000D02*
X180340000Y-57785000D01*
%TO.N,/A14*%
X132080000Y-95885000D02*
X172720000Y-55245000D01*
D13*
X172720000Y-55245000D02*
X180340000Y-55245000D01*
D12*
X188277500Y-55245000D02*
X180340000Y-55245000D01*
X191770000Y-53975000D02*
X189547500Y-53975000D01*
X189547500Y-53975000D02*
X188277500Y-55245000D01*
X116322500Y-95885000D02*
X132080000Y-95885000D01*
%TO.N,/A13*%
X188277500Y-52705000D02*
X180340000Y-52705000D01*
D13*
X173037500Y-52705000D02*
X180340000Y-52705000D01*
D12*
X132397500Y-93345000D02*
X116322500Y-93345000D01*
X173037500Y-52705000D02*
X132397500Y-93345000D01*
X189547500Y-51435000D02*
X188277500Y-52705000D01*
X191770000Y-51435000D02*
X189547500Y-51435000D01*
%TO.N,/A12*%
X172720000Y-50165000D02*
X132080000Y-90805000D01*
X188277500Y-50165000D02*
X180340000Y-50165000D01*
X116322500Y-90805000D02*
X132080000Y-90805000D01*
X189547500Y-48895000D02*
X188277500Y-50165000D01*
X191770000Y-48895000D02*
X189547500Y-48895000D01*
D13*
X172720000Y-50165000D02*
X180340000Y-50165000D01*
D12*
%TO.N,/A11*%
X132080000Y-88265000D02*
X172720000Y-47625000D01*
X188277500Y-47625000D02*
X180340000Y-47625000D01*
X188277500Y-47625000D02*
X189547500Y-46355000D01*
X189547500Y-46355000D02*
X191770000Y-46355000D01*
X116322500Y-88265000D02*
X132080000Y-88265000D01*
D13*
X172720000Y-47625000D02*
X180340000Y-47625000D01*
D12*
%TO.N,/A10*%
X172720000Y-45085000D02*
X132080000Y-85725000D01*
X191770000Y-43815000D02*
X189547500Y-43815000D01*
X188277500Y-45085000D02*
X180340000Y-45085000D01*
X189547500Y-43815000D02*
X188277500Y-45085000D01*
X116322500Y-85725000D02*
X132080000Y-85725000D01*
D13*
X172720000Y-45085000D02*
X180340000Y-45085000D01*
D12*
%TO.N,/A9*%
X172720000Y-42545000D02*
X132080000Y-83185000D01*
X132080000Y-83185000D02*
X116322500Y-83185000D01*
X188277500Y-42545000D02*
X180340000Y-42545000D01*
X191770000Y-41275000D02*
X189547500Y-41275000D01*
X172720000Y-42545000D02*
X172736000Y-42561000D01*
X180340000Y-42545000D02*
X180324000Y-42561000D01*
D13*
X172736000Y-42561000D02*
X180324000Y-42561000D01*
D12*
X189547500Y-41275000D02*
X188277500Y-42545000D01*
%TO.N,/A8*%
X132080000Y-80645000D02*
X116322500Y-80645000D01*
X188277500Y-40005000D02*
X180340000Y-40005000D01*
X191770000Y-38735000D02*
X189547500Y-38735000D01*
X189547500Y-38735000D02*
X188277500Y-40005000D01*
X172720000Y-40005000D02*
X132080000Y-80645000D01*
D13*
X172720000Y-40005000D02*
X180340000Y-40005000D01*
%TD*%
M02*
