M48
; DRILL file {KiCad 7.0.7} date Mon Jan  1 13:21:10 2024
; FORMAT={-:-/ absolute / inch / decimal}
; #@! TF.CreationDate,2024-01-01T13:21:10+01:00
; #@! TF.GenerationSoftware,Kicad,Pcbnew,7.0.7
; #@! TF.FileFunction,Plated,1,2,PTH
FMAT,2
INCH
; #@! TA.AperFunction,Plated,PTH,ComponentDrill
T1C0.0315
%
G90
G05
T1
X3.975Y-3.175
X3.975Y-3.275
X3.975Y-3.375
X3.975Y-3.475
X3.975Y-3.575
X3.975Y-3.675
X3.975Y-3.775
X3.975Y-3.875
X3.975Y-3.975
X3.975Y-4.075
X3.975Y-4.175
X3.975Y-4.275
X3.975Y-4.375
X3.975Y-4.475
X3.975Y-4.575
X3.975Y-4.675
X3.975Y-4.775
X3.975Y-4.875
X3.975Y-4.975
X3.975Y-5.075
X4.575Y-3.175
X4.575Y-3.275
X4.575Y-3.375
X4.575Y-3.475
X4.575Y-3.575
X4.575Y-3.675
X4.575Y-3.775
X4.575Y-3.875
X4.575Y-3.975
X4.575Y-4.075
X4.575Y-4.175
X4.575Y-4.275
X4.575Y-4.375
X4.575Y-4.475
X4.575Y-4.575
X4.575Y-4.675
X4.575Y-4.775
X4.575Y-4.875
X4.575Y-4.975
X4.575Y-5.075
X6.95Y-1.525
X6.95Y-1.625
X6.95Y-1.725
X6.95Y-1.825
X6.95Y-1.925
X6.95Y-2.025
X6.95Y-2.125
X6.95Y-2.225
X6.95Y-2.325
X6.95Y-2.425
X6.95Y-2.525
X6.95Y-2.625
X6.95Y-2.725
X6.95Y-2.825
X6.95Y-2.925
X6.95Y-3.025
X6.95Y-3.125
X6.95Y-3.225
X6.95Y-3.325
X6.95Y-3.425
X7.55Y-1.525
X7.55Y-1.625
X7.55Y-1.725
X7.55Y-1.825
X7.55Y-1.925
X7.55Y-2.025
X7.55Y-2.125
X7.55Y-2.225
X7.55Y-2.325
X7.55Y-2.425
X7.55Y-2.525
X7.55Y-2.625
X7.55Y-2.725
X7.55Y-2.825
X7.55Y-2.925
X7.55Y-3.025
X7.55Y-3.125
X7.55Y-3.225
X7.55Y-3.325
X7.55Y-3.425
T0
M30
