%TF.GenerationSoftware,KiCad,Pcbnew,7.0.7*%
%TF.CreationDate,2024-01-01T13:21:05+01:00*%
%TF.ProjectId,A500-Kickadapter,41353030-2d4b-4696-936b-616461707465,rev?*%
%TF.SameCoordinates,Original*%
%TF.FileFunction,Legend,Top*%
%TF.FilePolarity,Positive*%
%FSLAX46Y46*%
G04 Gerber Fmt 4.6, Leading zero omitted, Abs format (unit mm)*
G04 Created by KiCad (PCBNEW 7.0.7) date 2024-01-01 13:21:05*
%MOMM*%
%LPD*%
G01*
G04 APERTURE LIST*
%ADD10C,0.200000*%
%ADD11C,0.150000*%
%ADD12C,0.120000*%
G04 APERTURE END LIST*
D10*
X116925174Y-67988211D02*
X117319954Y-67721928D01*
X117005987Y-68278335D02*
X116723140Y-67262900D01*
X116723140Y-67262900D02*
X117558679Y-67905540D01*
X117835025Y-67719142D02*
X117462230Y-67166450D01*
X117515486Y-67245406D02*
X117528336Y-67179300D01*
X117528336Y-67179300D02*
X117580664Y-67086566D01*
X117580664Y-67086566D02*
X117699098Y-67006681D01*
X117699098Y-67006681D02*
X117804682Y-66992903D01*
X117804682Y-66992903D02*
X117897416Y-67045230D01*
X117897416Y-67045230D02*
X118190327Y-67479488D01*
X117897416Y-67045230D02*
X117883638Y-66939646D01*
X117883638Y-66939646D02*
X117935966Y-66846912D01*
X117935966Y-66846912D02*
X118054400Y-66767027D01*
X118054400Y-66767027D02*
X118159984Y-66753248D01*
X118159984Y-66753248D02*
X118252718Y-66805576D01*
X118252718Y-66805576D02*
X118545629Y-67239834D01*
X118940408Y-66973552D02*
X118567613Y-66420860D01*
X118381215Y-66144514D02*
X118368366Y-66210620D01*
X118368366Y-66210620D02*
X118434472Y-66223470D01*
X118434472Y-66223470D02*
X118447322Y-66157364D01*
X118447322Y-66157364D02*
X118381215Y-66144514D01*
X118381215Y-66144514D02*
X118434472Y-66223470D01*
X119317694Y-65914924D02*
X119770374Y-66586050D01*
X119770374Y-66586050D02*
X119784153Y-66691634D01*
X119784153Y-66691634D02*
X119771303Y-66757740D01*
X119771303Y-66757740D02*
X119718975Y-66850474D01*
X119718975Y-66850474D02*
X119600541Y-66930359D01*
X119600541Y-66930359D02*
X119494957Y-66944138D01*
X119663861Y-66428138D02*
X119611534Y-66520872D01*
X119611534Y-66520872D02*
X119453622Y-66627385D01*
X119453622Y-66627385D02*
X119348037Y-66641164D01*
X119348037Y-66641164D02*
X119281931Y-66628314D01*
X119281931Y-66628314D02*
X119189197Y-66575986D01*
X119189197Y-66575986D02*
X119029427Y-66339118D01*
X119029427Y-66339118D02*
X119015649Y-66233534D01*
X119015649Y-66233534D02*
X119028499Y-66167428D01*
X119028499Y-66167428D02*
X119080826Y-66074693D01*
X119080826Y-66074693D02*
X119238738Y-65968180D01*
X119238738Y-65968180D02*
X119344322Y-65954402D01*
X120440571Y-65961679D02*
X120147661Y-65527421D01*
X120147661Y-65527421D02*
X120054926Y-65475094D01*
X120054926Y-65475094D02*
X119949342Y-65488872D01*
X119949342Y-65488872D02*
X119791430Y-65595385D01*
X119791430Y-65595385D02*
X119739102Y-65688120D01*
X120413943Y-65922201D02*
X120361615Y-66014936D01*
X120361615Y-66014936D02*
X120164225Y-66148077D01*
X120164225Y-66148077D02*
X120058641Y-66161855D01*
X120058641Y-66161855D02*
X119965907Y-66109528D01*
X119965907Y-66109528D02*
X119912650Y-66030572D01*
X119912650Y-66030572D02*
X119898872Y-65924987D01*
X119898872Y-65924987D02*
X119951199Y-65832253D01*
X119951199Y-65832253D02*
X120148589Y-65699112D01*
X120148589Y-65699112D02*
X120200917Y-65606377D01*
X121174088Y-64835087D02*
X121450434Y-64648689D01*
X121861779Y-65003063D02*
X121466999Y-65269345D01*
X121466999Y-65269345D02*
X120907806Y-64440307D01*
X120907806Y-64440307D02*
X121302586Y-64174025D01*
X121844285Y-64210717D02*
X122403478Y-65039754D01*
X121870914Y-64250195D02*
X121923241Y-64157460D01*
X121923241Y-64157460D02*
X122081153Y-64050947D01*
X122081153Y-64050947D02*
X122186737Y-64037169D01*
X122186737Y-64037169D02*
X122252844Y-64050019D01*
X122252844Y-64050019D02*
X122345578Y-64102346D01*
X122345578Y-64102346D02*
X122505347Y-64339214D01*
X122505347Y-64339214D02*
X122519126Y-64444798D01*
X122519126Y-64444798D02*
X122506276Y-64510905D01*
X122506276Y-64510905D02*
X122453948Y-64603639D01*
X122453948Y-64603639D02*
X122296037Y-64710152D01*
X122296037Y-64710152D02*
X122190452Y-64723930D01*
X122967162Y-64257472D02*
X122594367Y-63704780D01*
X122700880Y-63862692D02*
X122687101Y-63757108D01*
X122687101Y-63757108D02*
X122699951Y-63691002D01*
X122699951Y-63691002D02*
X122752279Y-63598267D01*
X122752279Y-63598267D02*
X122831235Y-63545011D01*
X123598810Y-63831420D02*
X123493226Y-63845198D01*
X123493226Y-63845198D02*
X123427120Y-63832349D01*
X123427120Y-63832349D02*
X123334385Y-63780021D01*
X123334385Y-63780021D02*
X123174616Y-63543153D01*
X123174616Y-63543153D02*
X123160838Y-63437569D01*
X123160838Y-63437569D02*
X123173687Y-63371463D01*
X123173687Y-63371463D02*
X123226015Y-63278728D01*
X123226015Y-63278728D02*
X123344449Y-63198844D01*
X123344449Y-63198844D02*
X123450033Y-63185065D01*
X123450033Y-63185065D02*
X123516139Y-63197915D01*
X123516139Y-63197915D02*
X123608874Y-63250243D01*
X123608874Y-63250243D02*
X123768643Y-63487110D01*
X123768643Y-63487110D02*
X123782422Y-63592695D01*
X123782422Y-63592695D02*
X123769572Y-63658801D01*
X123769572Y-63658801D02*
X123717244Y-63751535D01*
X123717244Y-63751535D02*
X123598810Y-63831420D01*
X124230458Y-63405368D02*
X123857663Y-62852676D01*
X123910919Y-62931632D02*
X123923769Y-62865526D01*
X123923769Y-62865526D02*
X123976097Y-62772792D01*
X123976097Y-62772792D02*
X124094531Y-62692907D01*
X124094531Y-62692907D02*
X124200115Y-62679129D01*
X124200115Y-62679129D02*
X124292849Y-62731456D01*
X124292849Y-62731456D02*
X124585760Y-63165714D01*
X124292849Y-62731456D02*
X124279071Y-62625872D01*
X124279071Y-62625872D02*
X124331399Y-62533138D01*
X124331399Y-62533138D02*
X124449832Y-62453253D01*
X124449832Y-62453253D02*
X124555417Y-62439474D01*
X124555417Y-62439474D02*
X124648151Y-62491802D01*
X124648151Y-62491802D02*
X124941062Y-62926060D01*
X125122815Y-62343954D02*
X125754463Y-61917902D01*
X126163021Y-61757204D02*
X126557801Y-61490922D01*
X126243835Y-62047329D02*
X125960987Y-61031893D01*
X125960987Y-61031893D02*
X126796526Y-61674533D01*
X127428174Y-61248482D02*
X126868981Y-60419444D01*
X127401546Y-61209004D02*
X127349218Y-61301738D01*
X127349218Y-61301738D02*
X127191306Y-61408251D01*
X127191306Y-61408251D02*
X127085722Y-61422029D01*
X127085722Y-61422029D02*
X127019616Y-61409180D01*
X127019616Y-61409180D02*
X126926881Y-61356852D01*
X126926881Y-61356852D02*
X126767112Y-61119984D01*
X126767112Y-61119984D02*
X126753333Y-61014400D01*
X126753333Y-61014400D02*
X126766183Y-60948294D01*
X126766183Y-60948294D02*
X126818511Y-60855559D01*
X126818511Y-60855559D02*
X126976423Y-60749046D01*
X126976423Y-60749046D02*
X127082007Y-60735268D01*
X128178256Y-60742545D02*
X127885345Y-60308287D01*
X127885345Y-60308287D02*
X127792611Y-60255960D01*
X127792611Y-60255960D02*
X127687027Y-60269738D01*
X127687027Y-60269738D02*
X127529115Y-60376251D01*
X127529115Y-60376251D02*
X127476787Y-60468985D01*
X128151627Y-60703067D02*
X128099300Y-60795801D01*
X128099300Y-60795801D02*
X127901910Y-60928943D01*
X127901910Y-60928943D02*
X127796326Y-60942721D01*
X127796326Y-60942721D02*
X127703591Y-60890393D01*
X127703591Y-60890393D02*
X127650335Y-60811437D01*
X127650335Y-60811437D02*
X127636556Y-60705853D01*
X127636556Y-60705853D02*
X127688884Y-60613119D01*
X127688884Y-60613119D02*
X127886274Y-60479978D01*
X127886274Y-60479978D02*
X127938602Y-60387243D01*
X128200240Y-59923571D02*
X128759433Y-60752608D01*
X128226869Y-59963049D02*
X128279196Y-59870314D01*
X128279196Y-59870314D02*
X128437108Y-59763802D01*
X128437108Y-59763802D02*
X128542692Y-59750023D01*
X128542692Y-59750023D02*
X128608799Y-59762873D01*
X128608799Y-59762873D02*
X128701533Y-59815200D01*
X128701533Y-59815200D02*
X128861302Y-60052068D01*
X128861302Y-60052068D02*
X128875081Y-60157653D01*
X128875081Y-60157653D02*
X128862231Y-60223759D01*
X128862231Y-60223759D02*
X128809903Y-60316493D01*
X128809903Y-60316493D02*
X128651992Y-60423006D01*
X128651992Y-60423006D02*
X128546407Y-60436785D01*
X128831888Y-59497519D02*
X129147712Y-59284493D01*
X128763924Y-59141289D02*
X129243233Y-59851892D01*
X129243233Y-59851892D02*
X129335967Y-59904220D01*
X129335967Y-59904220D02*
X129441551Y-59890441D01*
X129441551Y-59890441D02*
X129520507Y-59837185D01*
X130086049Y-59398283D02*
X130033721Y-59491018D01*
X130033721Y-59491018D02*
X129875809Y-59597531D01*
X129875809Y-59597531D02*
X129770225Y-59611309D01*
X129770225Y-59611309D02*
X129677491Y-59558981D01*
X129677491Y-59558981D02*
X129464465Y-59243158D01*
X129464465Y-59243158D02*
X129450686Y-59137573D01*
X129450686Y-59137573D02*
X129503014Y-59044839D01*
X129503014Y-59044839D02*
X129660926Y-58938326D01*
X129660926Y-58938326D02*
X129766510Y-58924547D01*
X129766510Y-58924547D02*
X129859245Y-58976875D01*
X129859245Y-58976875D02*
X129912501Y-59055831D01*
X129912501Y-59055831D02*
X129570978Y-59401069D01*
X130507457Y-59171479D02*
X130134662Y-58618787D01*
X130241175Y-58776699D02*
X130227396Y-58671115D01*
X130227396Y-58671115D02*
X130240246Y-58605009D01*
X130240246Y-58605009D02*
X130292574Y-58512274D01*
X130292574Y-58512274D02*
X130371530Y-58459018D01*
X118498458Y-69213662D02*
X117955830Y-69005279D01*
X118024722Y-69533200D02*
X117465529Y-68704163D01*
X117465529Y-68704163D02*
X117781353Y-68491137D01*
X117781353Y-68491137D02*
X117886937Y-68477359D01*
X117886937Y-68477359D02*
X117953044Y-68490208D01*
X117953044Y-68490208D02*
X118045778Y-68542536D01*
X118045778Y-68542536D02*
X118125663Y-68660970D01*
X118125663Y-68660970D02*
X118139441Y-68766554D01*
X118139441Y-68766554D02*
X118126592Y-68832660D01*
X118126592Y-68832660D02*
X118074264Y-68925395D01*
X118074264Y-68925395D02*
X117758440Y-69138421D01*
X119209062Y-68734353D02*
X118916151Y-68300096D01*
X118916151Y-68300096D02*
X118823417Y-68247768D01*
X118823417Y-68247768D02*
X118717833Y-68261546D01*
X118717833Y-68261546D02*
X118559921Y-68368059D01*
X118559921Y-68368059D02*
X118507593Y-68460794D01*
X119182433Y-68694875D02*
X119130106Y-68787610D01*
X119130106Y-68787610D02*
X118932716Y-68920751D01*
X118932716Y-68920751D02*
X118827132Y-68934530D01*
X118827132Y-68934530D02*
X118734397Y-68882202D01*
X118734397Y-68882202D02*
X118681141Y-68803246D01*
X118681141Y-68803246D02*
X118667362Y-68697662D01*
X118667362Y-68697662D02*
X118719690Y-68604927D01*
X118719690Y-68604927D02*
X118917080Y-68471786D01*
X118917080Y-68471786D02*
X118969408Y-68379052D01*
X119722276Y-68388186D02*
X119616691Y-68401965D01*
X119616691Y-68401965D02*
X119523957Y-68349637D01*
X119523957Y-68349637D02*
X119044649Y-67639033D01*
X119546871Y-67702353D02*
X119862694Y-67489327D01*
X120038100Y-68175160D02*
X119558792Y-67464557D01*
X119558792Y-67464557D02*
X119545013Y-67358972D01*
X119545013Y-67358972D02*
X119597341Y-67266238D01*
X119597341Y-67266238D02*
X119676297Y-67212981D01*
X121143484Y-67429569D02*
X120584291Y-66600532D01*
X121617220Y-67110031D02*
X120942379Y-66875949D01*
X121058027Y-66280993D02*
X120903830Y-67074267D01*
X122327823Y-66630722D02*
X122034913Y-66196465D01*
X122034913Y-66196465D02*
X121942178Y-66144137D01*
X121942178Y-66144137D02*
X121836594Y-66157915D01*
X121836594Y-66157915D02*
X121678682Y-66264428D01*
X121678682Y-66264428D02*
X121626354Y-66357163D01*
X122301195Y-66591244D02*
X122248867Y-66683979D01*
X122248867Y-66683979D02*
X122051477Y-66817120D01*
X122051477Y-66817120D02*
X121945893Y-66830898D01*
X121945893Y-66830898D02*
X121853159Y-66778571D01*
X121853159Y-66778571D02*
X121799902Y-66699615D01*
X121799902Y-66699615D02*
X121786124Y-66594031D01*
X121786124Y-66594031D02*
X121838451Y-66501296D01*
X121838451Y-66501296D02*
X122035841Y-66368155D01*
X122035841Y-66368155D02*
X122088169Y-66275420D01*
X122722603Y-66364440D02*
X122349808Y-65811748D01*
X122403064Y-65890704D02*
X122415914Y-65824598D01*
X122415914Y-65824598D02*
X122468242Y-65731864D01*
X122468242Y-65731864D02*
X122586676Y-65651979D01*
X122586676Y-65651979D02*
X122692260Y-65638200D01*
X122692260Y-65638200D02*
X122784994Y-65690528D01*
X122784994Y-65690528D02*
X123077905Y-66124786D01*
X122784994Y-65690528D02*
X122771216Y-65584944D01*
X122771216Y-65584944D02*
X122823544Y-65492209D01*
X122823544Y-65492209D02*
X122941977Y-65412325D01*
X122941977Y-65412325D02*
X123047562Y-65398546D01*
X123047562Y-65398546D02*
X123140296Y-65450874D01*
X123140296Y-65450874D02*
X123433207Y-65885132D01*
X123827986Y-65618850D02*
X123455191Y-65066158D01*
X123508447Y-65145114D02*
X123521297Y-65079008D01*
X123521297Y-65079008D02*
X123573625Y-64986273D01*
X123573625Y-64986273D02*
X123692059Y-64906388D01*
X123692059Y-64906388D02*
X123797643Y-64892610D01*
X123797643Y-64892610D02*
X123890377Y-64944938D01*
X123890377Y-64944938D02*
X124183288Y-65379195D01*
X123890377Y-64944938D02*
X123876599Y-64839353D01*
X123876599Y-64839353D02*
X123928927Y-64746619D01*
X123928927Y-64746619D02*
X124047361Y-64666734D01*
X124047361Y-64666734D02*
X124152945Y-64652956D01*
X124152945Y-64652956D02*
X124245679Y-64705284D01*
X124245679Y-64705284D02*
X124538590Y-65139541D01*
X125222565Y-64620755D02*
X125170237Y-64713490D01*
X125170237Y-64713490D02*
X125012325Y-64820003D01*
X125012325Y-64820003D02*
X124906741Y-64833781D01*
X124906741Y-64833781D02*
X124814007Y-64781454D01*
X124814007Y-64781454D02*
X124600981Y-64465630D01*
X124600981Y-64465630D02*
X124587202Y-64360045D01*
X124587202Y-64360045D02*
X124639530Y-64267311D01*
X124639530Y-64267311D02*
X124797442Y-64160798D01*
X124797442Y-64160798D02*
X124903026Y-64147020D01*
X124903026Y-64147020D02*
X124995761Y-64199347D01*
X124995761Y-64199347D02*
X125049017Y-64278303D01*
X125049017Y-64278303D02*
X124707494Y-64623542D01*
X125762407Y-64314066D02*
X125656823Y-64327845D01*
X125656823Y-64327845D02*
X125564088Y-64275517D01*
X125564088Y-64275517D02*
X125084780Y-63564913D01*
X126091081Y-64034934D02*
X126117709Y-64074412D01*
X126117709Y-64074412D02*
X126131488Y-64179996D01*
X126131488Y-64179996D02*
X126118638Y-64246102D01*
X127006352Y-62326236D02*
X126900767Y-62340014D01*
X126900767Y-62340014D02*
X126782333Y-62419899D01*
X126782333Y-62419899D02*
X126690528Y-62539262D01*
X126690528Y-62539262D02*
X126664828Y-62671474D01*
X126664828Y-62671474D02*
X126678607Y-62777058D01*
X126678607Y-62777058D02*
X126745642Y-62961599D01*
X126745642Y-62961599D02*
X126825526Y-63080033D01*
X126825526Y-63080033D02*
X126971517Y-63211316D01*
X126971517Y-63211316D02*
X127064252Y-63263644D01*
X127064252Y-63263644D02*
X127196464Y-63289343D01*
X127196464Y-63289343D02*
X127341526Y-63248937D01*
X127341526Y-63248937D02*
X127420482Y-63195680D01*
X127420482Y-63195680D02*
X127512288Y-63076318D01*
X127512288Y-63076318D02*
X127525138Y-63010211D01*
X127525138Y-63010211D02*
X127338740Y-62733866D01*
X127338740Y-62733866D02*
X127180828Y-62840378D01*
X128222892Y-62597009D02*
X128170564Y-62689744D01*
X128170564Y-62689744D02*
X128012652Y-62796257D01*
X128012652Y-62796257D02*
X127907068Y-62810035D01*
X127907068Y-62810035D02*
X127814333Y-62757708D01*
X127814333Y-62757708D02*
X127601308Y-62441884D01*
X127601308Y-62441884D02*
X127587529Y-62336300D01*
X127587529Y-62336300D02*
X127639857Y-62243565D01*
X127639857Y-62243565D02*
X127797769Y-62137052D01*
X127797769Y-62137052D02*
X127903353Y-62123274D01*
X127903353Y-62123274D02*
X127996087Y-62175601D01*
X127996087Y-62175601D02*
X128049344Y-62254557D01*
X128049344Y-62254557D02*
X127707820Y-62599796D01*
X128644300Y-62370205D02*
X128271505Y-61817513D01*
X128378018Y-61975425D02*
X128364239Y-61869841D01*
X128364239Y-61869841D02*
X128377089Y-61803735D01*
X128377089Y-61803735D02*
X128429416Y-61711000D01*
X128429416Y-61711000D02*
X128508372Y-61657744D01*
X129157514Y-62024038D02*
X128784719Y-61471346D01*
X128837975Y-61550302D02*
X128850825Y-61484196D01*
X128850825Y-61484196D02*
X128903153Y-61391461D01*
X128903153Y-61391461D02*
X129021587Y-61311577D01*
X129021587Y-61311577D02*
X129127171Y-61297798D01*
X129127171Y-61297798D02*
X129219905Y-61350126D01*
X129219905Y-61350126D02*
X129512816Y-61784384D01*
X129219905Y-61350126D02*
X129206127Y-61244542D01*
X129206127Y-61244542D02*
X129258454Y-61151807D01*
X129258454Y-61151807D02*
X129376888Y-61071923D01*
X129376888Y-61071923D02*
X129482473Y-61058144D01*
X129482473Y-61058144D02*
X129575207Y-61110472D01*
X129575207Y-61110472D02*
X129868118Y-61544730D01*
X130618199Y-61038793D02*
X130325288Y-60604535D01*
X130325288Y-60604535D02*
X130232554Y-60552208D01*
X130232554Y-60552208D02*
X130126970Y-60565986D01*
X130126970Y-60565986D02*
X129969058Y-60672499D01*
X129969058Y-60672499D02*
X129916730Y-60765234D01*
X130591571Y-60999315D02*
X130539243Y-61092050D01*
X130539243Y-61092050D02*
X130341853Y-61225191D01*
X130341853Y-61225191D02*
X130236269Y-61238969D01*
X130236269Y-61238969D02*
X130143534Y-61186642D01*
X130143534Y-61186642D02*
X130090278Y-61107686D01*
X130090278Y-61107686D02*
X130076499Y-61002102D01*
X130076499Y-61002102D02*
X130128827Y-60909367D01*
X130128827Y-60909367D02*
X130326217Y-60776226D01*
X130326217Y-60776226D02*
X130378545Y-60683491D01*
X130640183Y-60219819D02*
X131012979Y-60772511D01*
X130693440Y-60298775D02*
X130706290Y-60232669D01*
X130706290Y-60232669D02*
X130758617Y-60139934D01*
X130758617Y-60139934D02*
X130877051Y-60060050D01*
X130877051Y-60060050D02*
X130982636Y-60046271D01*
X130982636Y-60046271D02*
X131075370Y-60098599D01*
X131075370Y-60098599D02*
X131368281Y-60532857D01*
X131311309Y-59767139D02*
X131881494Y-60186690D01*
X131706089Y-59500857D02*
X131881494Y-60186690D01*
X131881494Y-60186690D02*
X131935680Y-60437336D01*
X131935680Y-60437336D02*
X131922830Y-60503442D01*
X131922830Y-60503442D02*
X131870502Y-60596177D01*
D11*
X102918333Y-78722200D02*
X103061190Y-78769819D01*
X103061190Y-78769819D02*
X103299285Y-78769819D01*
X103299285Y-78769819D02*
X103394523Y-78722200D01*
X103394523Y-78722200D02*
X103442142Y-78674580D01*
X103442142Y-78674580D02*
X103489761Y-78579342D01*
X103489761Y-78579342D02*
X103489761Y-78484104D01*
X103489761Y-78484104D02*
X103442142Y-78388866D01*
X103442142Y-78388866D02*
X103394523Y-78341247D01*
X103394523Y-78341247D02*
X103299285Y-78293628D01*
X103299285Y-78293628D02*
X103108809Y-78246009D01*
X103108809Y-78246009D02*
X103013571Y-78198390D01*
X103013571Y-78198390D02*
X102965952Y-78150771D01*
X102965952Y-78150771D02*
X102918333Y-78055533D01*
X102918333Y-78055533D02*
X102918333Y-77960295D01*
X102918333Y-77960295D02*
X102965952Y-77865057D01*
X102965952Y-77865057D02*
X103013571Y-77817438D01*
X103013571Y-77817438D02*
X103108809Y-77769819D01*
X103108809Y-77769819D02*
X103346904Y-77769819D01*
X103346904Y-77769819D02*
X103489761Y-77817438D01*
X104108809Y-77769819D02*
X104299285Y-77769819D01*
X104299285Y-77769819D02*
X104394523Y-77817438D01*
X104394523Y-77817438D02*
X104489761Y-77912676D01*
X104489761Y-77912676D02*
X104537380Y-78103152D01*
X104537380Y-78103152D02*
X104537380Y-78436485D01*
X104537380Y-78436485D02*
X104489761Y-78626961D01*
X104489761Y-78626961D02*
X104394523Y-78722200D01*
X104394523Y-78722200D02*
X104299285Y-78769819D01*
X104299285Y-78769819D02*
X104108809Y-78769819D01*
X104108809Y-78769819D02*
X104013571Y-78722200D01*
X104013571Y-78722200D02*
X103918333Y-78626961D01*
X103918333Y-78626961D02*
X103870714Y-78436485D01*
X103870714Y-78436485D02*
X103870714Y-78103152D01*
X103870714Y-78103152D02*
X103918333Y-77912676D01*
X103918333Y-77912676D02*
X104013571Y-77817438D01*
X104013571Y-77817438D02*
X104108809Y-77769819D01*
X105537380Y-78674580D02*
X105489761Y-78722200D01*
X105489761Y-78722200D02*
X105346904Y-78769819D01*
X105346904Y-78769819D02*
X105251666Y-78769819D01*
X105251666Y-78769819D02*
X105108809Y-78722200D01*
X105108809Y-78722200D02*
X105013571Y-78626961D01*
X105013571Y-78626961D02*
X104965952Y-78531723D01*
X104965952Y-78531723D02*
X104918333Y-78341247D01*
X104918333Y-78341247D02*
X104918333Y-78198390D01*
X104918333Y-78198390D02*
X104965952Y-78007914D01*
X104965952Y-78007914D02*
X105013571Y-77912676D01*
X105013571Y-77912676D02*
X105108809Y-77817438D01*
X105108809Y-77817438D02*
X105251666Y-77769819D01*
X105251666Y-77769819D02*
X105346904Y-77769819D01*
X105346904Y-77769819D02*
X105489761Y-77817438D01*
X105489761Y-77817438D02*
X105537380Y-77865057D01*
X105965952Y-78769819D02*
X105965952Y-77769819D01*
X106537380Y-78769819D02*
X106108809Y-78198390D01*
X106537380Y-77769819D02*
X105965952Y-78341247D01*
X106965952Y-78246009D02*
X107299285Y-78246009D01*
X107442142Y-78769819D02*
X106965952Y-78769819D01*
X106965952Y-78769819D02*
X106965952Y-77769819D01*
X106965952Y-77769819D02*
X107442142Y-77769819D01*
X107727857Y-77769819D02*
X108299285Y-77769819D01*
X108013571Y-78769819D02*
X108013571Y-77769819D01*
X108394524Y-78865057D02*
X109156428Y-78865057D01*
X109346905Y-78484104D02*
X109823095Y-78484104D01*
X109251667Y-78769819D02*
X109585000Y-77769819D01*
X109585000Y-77769819D02*
X109918333Y-78769819D01*
X110251667Y-78769819D02*
X110251667Y-77769819D01*
X110251667Y-77769819D02*
X110585000Y-78484104D01*
X110585000Y-78484104D02*
X110918333Y-77769819D01*
X110918333Y-77769819D02*
X110918333Y-78769819D01*
X111394524Y-78769819D02*
X111394524Y-77769819D01*
X112394523Y-77817438D02*
X112299285Y-77769819D01*
X112299285Y-77769819D02*
X112156428Y-77769819D01*
X112156428Y-77769819D02*
X112013571Y-77817438D01*
X112013571Y-77817438D02*
X111918333Y-77912676D01*
X111918333Y-77912676D02*
X111870714Y-78007914D01*
X111870714Y-78007914D02*
X111823095Y-78198390D01*
X111823095Y-78198390D02*
X111823095Y-78341247D01*
X111823095Y-78341247D02*
X111870714Y-78531723D01*
X111870714Y-78531723D02*
X111918333Y-78626961D01*
X111918333Y-78626961D02*
X112013571Y-78722200D01*
X112013571Y-78722200D02*
X112156428Y-78769819D01*
X112156428Y-78769819D02*
X112251666Y-78769819D01*
X112251666Y-78769819D02*
X112394523Y-78722200D01*
X112394523Y-78722200D02*
X112442142Y-78674580D01*
X112442142Y-78674580D02*
X112442142Y-78341247D01*
X112442142Y-78341247D02*
X112251666Y-78341247D01*
X112823095Y-78484104D02*
X113299285Y-78484104D01*
X112727857Y-78769819D02*
X113061190Y-77769819D01*
X113061190Y-77769819D02*
X113394523Y-78769819D01*
X114251666Y-78769819D02*
X113680238Y-78769819D01*
X113965952Y-78769819D02*
X113965952Y-77769819D01*
X113965952Y-77769819D02*
X113870714Y-77912676D01*
X113870714Y-77912676D02*
X113775476Y-78007914D01*
X113775476Y-78007914D02*
X113680238Y-78055533D01*
X178102381Y-36812200D02*
X178245238Y-36859819D01*
X178245238Y-36859819D02*
X178483333Y-36859819D01*
X178483333Y-36859819D02*
X178578571Y-36812200D01*
X178578571Y-36812200D02*
X178626190Y-36764580D01*
X178626190Y-36764580D02*
X178673809Y-36669342D01*
X178673809Y-36669342D02*
X178673809Y-36574104D01*
X178673809Y-36574104D02*
X178626190Y-36478866D01*
X178626190Y-36478866D02*
X178578571Y-36431247D01*
X178578571Y-36431247D02*
X178483333Y-36383628D01*
X178483333Y-36383628D02*
X178292857Y-36336009D01*
X178292857Y-36336009D02*
X178197619Y-36288390D01*
X178197619Y-36288390D02*
X178150000Y-36240771D01*
X178150000Y-36240771D02*
X178102381Y-36145533D01*
X178102381Y-36145533D02*
X178102381Y-36050295D01*
X178102381Y-36050295D02*
X178150000Y-35955057D01*
X178150000Y-35955057D02*
X178197619Y-35907438D01*
X178197619Y-35907438D02*
X178292857Y-35859819D01*
X178292857Y-35859819D02*
X178530952Y-35859819D01*
X178530952Y-35859819D02*
X178673809Y-35907438D01*
X179292857Y-35859819D02*
X179483333Y-35859819D01*
X179483333Y-35859819D02*
X179578571Y-35907438D01*
X179578571Y-35907438D02*
X179673809Y-36002676D01*
X179673809Y-36002676D02*
X179721428Y-36193152D01*
X179721428Y-36193152D02*
X179721428Y-36526485D01*
X179721428Y-36526485D02*
X179673809Y-36716961D01*
X179673809Y-36716961D02*
X179578571Y-36812200D01*
X179578571Y-36812200D02*
X179483333Y-36859819D01*
X179483333Y-36859819D02*
X179292857Y-36859819D01*
X179292857Y-36859819D02*
X179197619Y-36812200D01*
X179197619Y-36812200D02*
X179102381Y-36716961D01*
X179102381Y-36716961D02*
X179054762Y-36526485D01*
X179054762Y-36526485D02*
X179054762Y-36193152D01*
X179054762Y-36193152D02*
X179102381Y-36002676D01*
X179102381Y-36002676D02*
X179197619Y-35907438D01*
X179197619Y-35907438D02*
X179292857Y-35859819D01*
X180721428Y-36764580D02*
X180673809Y-36812200D01*
X180673809Y-36812200D02*
X180530952Y-36859819D01*
X180530952Y-36859819D02*
X180435714Y-36859819D01*
X180435714Y-36859819D02*
X180292857Y-36812200D01*
X180292857Y-36812200D02*
X180197619Y-36716961D01*
X180197619Y-36716961D02*
X180150000Y-36621723D01*
X180150000Y-36621723D02*
X180102381Y-36431247D01*
X180102381Y-36431247D02*
X180102381Y-36288390D01*
X180102381Y-36288390D02*
X180150000Y-36097914D01*
X180150000Y-36097914D02*
X180197619Y-36002676D01*
X180197619Y-36002676D02*
X180292857Y-35907438D01*
X180292857Y-35907438D02*
X180435714Y-35859819D01*
X180435714Y-35859819D02*
X180530952Y-35859819D01*
X180530952Y-35859819D02*
X180673809Y-35907438D01*
X180673809Y-35907438D02*
X180721428Y-35955057D01*
X181150000Y-36859819D02*
X181150000Y-35859819D01*
X181721428Y-36859819D02*
X181292857Y-36288390D01*
X181721428Y-35859819D02*
X181150000Y-36431247D01*
X182150000Y-36336009D02*
X182483333Y-36336009D01*
X182626190Y-36859819D02*
X182150000Y-36859819D01*
X182150000Y-36859819D02*
X182150000Y-35859819D01*
X182150000Y-35859819D02*
X182626190Y-35859819D01*
X182911905Y-35859819D02*
X183483333Y-35859819D01*
X183197619Y-36859819D02*
X183197619Y-35859819D01*
X183578572Y-36955057D02*
X184340476Y-36955057D01*
X184578572Y-36336009D02*
X184911905Y-36336009D01*
X185054762Y-36859819D02*
X184578572Y-36859819D01*
X184578572Y-36859819D02*
X184578572Y-35859819D01*
X184578572Y-35859819D02*
X185054762Y-35859819D01*
X185483334Y-36859819D02*
X185483334Y-35859819D01*
X185483334Y-35859819D02*
X185864286Y-35859819D01*
X185864286Y-35859819D02*
X185959524Y-35907438D01*
X185959524Y-35907438D02*
X186007143Y-35955057D01*
X186007143Y-35955057D02*
X186054762Y-36050295D01*
X186054762Y-36050295D02*
X186054762Y-36193152D01*
X186054762Y-36193152D02*
X186007143Y-36288390D01*
X186007143Y-36288390D02*
X185959524Y-36336009D01*
X185959524Y-36336009D02*
X185864286Y-36383628D01*
X185864286Y-36383628D02*
X185483334Y-36383628D01*
X187054762Y-36859819D02*
X186721429Y-36383628D01*
X186483334Y-36859819D02*
X186483334Y-35859819D01*
X186483334Y-35859819D02*
X186864286Y-35859819D01*
X186864286Y-35859819D02*
X186959524Y-35907438D01*
X186959524Y-35907438D02*
X187007143Y-35955057D01*
X187007143Y-35955057D02*
X187054762Y-36050295D01*
X187054762Y-36050295D02*
X187054762Y-36193152D01*
X187054762Y-36193152D02*
X187007143Y-36288390D01*
X187007143Y-36288390D02*
X186959524Y-36336009D01*
X186959524Y-36336009D02*
X186864286Y-36383628D01*
X186864286Y-36383628D02*
X186483334Y-36383628D01*
X187673810Y-35859819D02*
X187864286Y-35859819D01*
X187864286Y-35859819D02*
X187959524Y-35907438D01*
X187959524Y-35907438D02*
X188054762Y-36002676D01*
X188054762Y-36002676D02*
X188102381Y-36193152D01*
X188102381Y-36193152D02*
X188102381Y-36526485D01*
X188102381Y-36526485D02*
X188054762Y-36716961D01*
X188054762Y-36716961D02*
X187959524Y-36812200D01*
X187959524Y-36812200D02*
X187864286Y-36859819D01*
X187864286Y-36859819D02*
X187673810Y-36859819D01*
X187673810Y-36859819D02*
X187578572Y-36812200D01*
X187578572Y-36812200D02*
X187483334Y-36716961D01*
X187483334Y-36716961D02*
X187435715Y-36526485D01*
X187435715Y-36526485D02*
X187435715Y-36193152D01*
X187435715Y-36193152D02*
X187483334Y-36002676D01*
X187483334Y-36002676D02*
X187578572Y-35907438D01*
X187578572Y-35907438D02*
X187673810Y-35859819D01*
X188530953Y-36859819D02*
X188530953Y-35859819D01*
X188530953Y-35859819D02*
X188864286Y-36574104D01*
X188864286Y-36574104D02*
X189197619Y-35859819D01*
X189197619Y-35859819D02*
X189197619Y-36859819D01*
X190197619Y-36859819D02*
X189626191Y-36859819D01*
X189911905Y-36859819D02*
X189911905Y-35859819D01*
X189911905Y-35859819D02*
X189816667Y-36002676D01*
X189816667Y-36002676D02*
X189721429Y-36097914D01*
X189721429Y-36097914D02*
X189626191Y-36145533D01*
D12*
%TO.C,SOCKET_AMIGA1*%
X102525000Y-79315000D02*
X102525000Y-130235000D01*
X102525000Y-130235000D02*
X114645000Y-130235000D01*
X107585000Y-79315000D02*
X102525000Y-79315000D01*
X114645000Y-79315000D02*
X109585000Y-79315000D01*
X114645000Y-130235000D02*
X114645000Y-79315000D01*
X107585000Y-79315000D02*
G75*
G03*
X109585000Y-79315000I1000000J0D01*
G01*
%TO.C,SOCKET_EPROM1*%
X178090000Y-37405000D02*
X178090000Y-88325000D01*
X178090000Y-88325000D02*
X190210000Y-88325000D01*
X183150000Y-37405000D02*
X178090000Y-37405000D01*
X190210000Y-37405000D02*
X185150000Y-37405000D01*
X190210000Y-88325000D02*
X190210000Y-37405000D01*
X183150000Y-37405000D02*
G75*
G03*
X185150000Y-37405000I1000000J0D01*
G01*
%TD*%
M02*
